<?xml version="1.0" encoding="UTF-8"?>
<svg width="116px" height="108px" viewBox="0 0 116 108" version="1.1" xmlns="http://www.w3.org/2000/svg" xmlns:xlink="http://www.w3.org/1999/xlink">
    <!-- Generator: Sketch 42 (36781) - http://www.bohemiancoding.com/sketch -->
    <title>folder</title>
    <desc>Created with Sketch.</desc>
    <defs></defs>
    <g id="Lung&amp;Heart" stroke="none" stroke-width="1" fill="none" fill-rule="evenodd">
        <g id="Especialidades" transform="translate(-80.000000, -1098.000000)" fill-rule="nonzero">
            <g id="folder" transform="translate(79.000000, 1098.000000)">
                <g id="Layer_1">
                    <g id="Group" transform="translate(0.828452, 28.640167)" fill="#676767">
                        <path d="M58.0123264,47.7151548 C56.2413975,47.7151548 54.8059916,46.279749 54.8059916,44.5088201 L54.8059916,31.861749 C54.8059916,30.0908201 56.2413975,28.6554142 58.0123264,28.6554142 C59.7832552,28.6554142 61.2186611,30.0908201 61.2186611,31.861749 L61.2186611,44.5088201 C61.2186611,46.279749 59.7832552,47.7151548 58.0123264,47.7151548 Z" id="Shape"></path>
                        <path d="M64.3362008,41.3912803 L51.6891297,41.3912803 C49.9182008,41.3912803 48.482795,39.9558745 48.482795,38.1849456 C48.482795,36.4140167 49.9182008,34.9786109 51.6891297,34.9786109 L64.3362008,34.9786109 C66.1071297,34.9786109 67.5425356,36.4140167 67.5425356,38.1849456 C67.5425356,39.9561004 66.1071297,41.3912803 64.3362008,41.3912803 Z" id="Shape"></path>
                        <path d="M58.0123264,59.1864268 C46.4319247,59.1864268 37.0108452,49.7653473 37.0108452,38.1849456 C37.0108452,26.6045439 46.4319247,17.1834644 58.0123264,17.1834644 C61.5492134,17.1834644 65.0476904,18.0802259 68.1295314,19.777272 C69.6808452,20.6313305 70.2459247,22.581205 69.3918661,24.1325188 C68.5378075,25.6840586 66.5877071,26.2484603 65.0366192,25.3948536 C62.8996653,24.2183766 60.470795,23.5963598 58.0125523,23.5963598 C49.9681339,23.5963598 43.4237406,30.1407531 43.4237406,38.1851715 C43.4237406,46.22959 49.9681339,52.7739833 58.0125523,52.7739833 C66.0569707,52.7739833 72.601364,46.22959 72.601364,38.1851715 C72.601364,36.4142427 74.0367699,34.9788368 75.8076987,34.9788368 C77.5786276,34.9788368 79.0140335,36.4142427 79.0140335,38.1851715 C79.0138075,49.7653473 69.592728,59.1864268 58.0123264,59.1864268 Z" id="Shape"></path>
                        <path d="M102.335255,79.1521925 L13.6898494,79.1521925 C6.23604184,79.1521925 0.171548117,73.0876987 0.171548117,65.6336653 L0.171548117,3.48328033 C0.171548117,1.71235146 1.60695397,0.276945607 3.37788285,0.276945607 L112.647222,0.276945607 C114.418151,0.276945607 115.853556,1.71235146 115.853556,3.48328033 L115.853556,38.4318996 C115.853556,40.2028285 114.418151,41.6382343 112.647222,41.6382343 C110.876293,41.6382343 109.440887,40.2028285 109.440887,38.4318996 L109.440887,6.68961506 L6.58421757,6.68961506 L6.58421757,65.6341172 C6.58421757,69.5521674 9.77157322,72.739749 13.6898494,72.739749 L102.335481,72.739749 C106.253531,72.739749 109.441113,69.5523933 109.441113,65.6341172 L109.441113,57.2214142 C109.441113,55.4504854 110.876519,54.0150795 112.647448,54.0150795 C114.418377,54.0150795 115.853782,55.4504854 115.853782,57.2214142 L115.853782,65.6341172 C115.853556,73.0876987 109.789063,79.1521925 102.335255,79.1521925 Z" id="Shape"></path>
                    </g>
                    <path d="M113.475674,32.1227699 L113.475674,22.2773724 C113.475674,18.2671381 110.224828,15.0167448 106.215046,15.0167448 L41.2157657,15.0167448 L37.3379331,7.3860251 C36.0995481,4.94924686 33.5981506,3.41442678 30.8649372,3.41442678 L11.4669623,3.41442678 C7.45717992,3.41442678 4.20633473,6.66527197 4.20633473,10.6750544 L4.20633473,14.4880418 L4.20633473,32.1227699 L113.475674,32.1227699 L113.475674,32.1227699 L113.475674,32.1227699 Z" id="Shape" fill="#FFEBEA"></path>
                    <g id="Group" transform="translate(1.000000, 0.000000)" fill="#676767">
                        <path d="M112.475674,35.3291046 L3.20633473,35.3291046 C1.43540586,35.3291046 0,33.8936987 0,32.1227699 L0,10.6746025 C0,4.90315481 4.69574059,0.207640167 10.4669623,0.207640167 L29.8649372,0.207640167 C33.8261423,0.207640167 37.4016653,2.40130544 39.1965439,5.93276987 L42.1828117,11.8099582 L105.214594,11.8099582 C110.986042,11.8099582 115.681556,16.5056987 115.681556,22.2773724 L115.681556,32.122318 C115.682008,33.8936987 114.246603,35.3291046 112.475674,35.3291046 Z M6.41266946,28.9164351 L109.269339,28.9164351 L109.269339,22.2773724 C109.269339,20.041682 107.450736,18.2226276 105.215046,18.2226276 L40.2157657,18.2226276 C39.0090126,18.2226276 37.9039331,17.5448033 37.3573808,16.4688703 L33.4795481,8.83792469 C32.7843264,7.46984937 31.3993054,6.62008368 29.8651632,6.62008368 L10.4669623,6.62008368 C8.23127197,6.62030962 6.41266946,8.43936402 6.41266946,10.6748285 L6.41266946,28.9164351 Z" id="Shape"></path>
                    </g>
                </g>
            </g>
        </g>
    </g>
</svg>