<?xml version="1.0" encoding="UTF-8"?>
<svg width="81px" height="108px" viewBox="0 0 81 108" version="1.1" xmlns="http://www.w3.org/2000/svg" xmlns:xlink="http://www.w3.org/1999/xlink">
    <!-- Generator: Sketch 42 (36781) - http://www.bohemiancoding.com/sketch -->
    <title>surgeon</title>
    <desc>Created with Sketch.</desc>
    <defs></defs>
    <g id="Lung&amp;Heart" stroke="none" stroke-width="1" fill="none" fill-rule="evenodd">
        <g id="Especialidades" transform="translate(-169.000000, -447.000000)" fill-rule="nonzero">
            <g id="Group-2" transform="translate(137.000000, 447.000000)">
                <g id="surgeon" transform="translate(32.366079, 0.000000)">
                    <g id="Layer_1" transform="translate(0.000000, 0.000000)">
                        <path d="M39.8386155,59.671117 C30.6243631,59.671117 23.4685091,52.6341498 19.8440337,46.0484073 C19.8314531,46.0255525 19.8190822,46.0022784 19.8067113,45.9790042 L19.7507275,45.8766819 C19.1476967,44.760362 18.6046335,43.2594945 18.1441829,41.4281763 C17.9108125,40.5045494 17.7002969,39.5161324 17.5199747,38.4939574 C16.3097195,31.616764 15.7421241,17.9699414 21.2912239,10.4375076 C26.6449048,3.17094412 35.2024491,3.48483047 39.8384058,4.87016591 C44.4752013,3.4846208 53.032536,3.17136347 58.3855878,10.4375076 C63.5327369,17.4247814 63.1674797,29.0423507 62.7711904,33.7126945 C62.6302875,35.3720777 61.1736619,36.6037199 59.5119723,36.4626074 C57.8525891,36.3217045 56.6215759,34.8627724 56.7620594,33.2033893 C57.45609,25.0161344 56.2177381,17.6629744 53.5300993,14.0141766 C49.0289648,7.90398132 41.2438703,10.7453133 40.9148872,10.8692324 C40.2133082,11.1411833 39.4492455,11.1357317 38.7478762,10.8637808 C38.4321027,10.7453133 30.6470082,7.90461035 26.1460834,14.0141766 C22.5364951,18.9139069 22.0622059,29.511398 23.4586542,37.4472502 C23.6133958,38.3247481 23.7926696,39.1682784 23.9914433,39.9539378 C24.4359584,41.721724 24.8532155,42.6350767 25.0626827,43.0223499 C25.0928762,43.0766563 25.1192955,43.1250916 25.1444567,43.172898 C27.8163697,48.0093059 33.2591633,53.6403894 39.8377768,53.6403894 C42.8642535,53.6403894 45.8456497,52.4724889 48.6995623,50.1691879 C50.9196216,48.3760308 52.5184081,46.3174228 53.4678253,44.9060874 C54.3975327,43.5247358 56.2714154,43.1586399 57.6529766,44.0883474 C59.0345379,45.0182646 59.4006338,46.8919376 58.4707167,48.2734988 C56.7767368,50.7900413 54.7080643,53.0679714 52.4875856,54.8613381 C48.5899013,58.0085887 44.2156213,59.671117 39.8386155,59.671117 Z" id="Shape" fill="#666666"></path>
                        <path d="M59.7354879,11.7110852 C59.7346491,11.7089885 59.7340201,11.7068917 59.7331814,11.7047949 C59.7325524,11.7033272 59.7319233,11.7018594 59.7312943,11.700182 C59.0303444,9.95525067 55.2741919,3.01704126 39.8549703,3.01536384 L39.8549703,3.01536384 L39.8384058,3.01536384 C22.5538983,3.01536384 19.8071306,12.0945843 19.8071306,12.0945843 L19.8071306,28.9224155 L20.537645,28.9224155 C23.8889113,26.2865669 31.270168,24.455668 39.8384058,24.455668 L39.8549703,24.455668 L39.8549703,24.455668 C45.2055061,24.4571357 50.0924461,25.1727631 53.8228083,26.3519861 C53.8439857,26.3586958 53.863905,26.3656151 53.884663,26.3721151 C54.0496787,26.4245343 54.213017,26.4780019 54.3734199,26.5323083 C54.4065488,26.5434211 54.4382101,26.555163 54.4711293,26.5666953 C54.6176935,26.6170177 54.7636286,26.6677596 54.9062089,26.7195498 C54.9552733,26.7373723 55.0024507,26.7560335 55.050886,26.7740658 C55.1750148,26.8201947 55.2995629,26.8661139 55.4205464,26.9130816 C55.4937237,26.9418073 55.5643848,26.9713717 55.6365137,27.0003072 C55.7300296,27.0376296 55.8245939,27.0751618 55.916013,27.1131133 C56.0013515,27.1487584 56.0833352,27.1854519 56.1667866,27.221726 C56.241851,27.2542259 56.3188024,27.2865162 56.392399,27.3194354 C56.4823504,27.3599031 56.5687373,27.4012094 56.6561726,27.4420964 C56.720124,27.4718706 56.7857529,27.501435 56.8484463,27.5316285 C56.9702686,27.590338 57.0885264,27.6505153 57.2057358,27.7104829 C57.2313164,27.7236925 57.2585744,27.7364828 57.2841549,27.7496925 C57.9937017,28.1180948 58.6153937,28.5104004 59.1391667,28.9224155 L59.8696811,28.9224155 L59.8696811,12.0945843 C59.8696811,12.0945843 59.8331973,11.9549395 59.7354879,11.7110852 Z" id="Shape" fill="#FFECEA"></path>
                        <g id="Group" transform="translate(16.774154, 0.000000)" fill="#666666">
                            <path d="M43.0955272,31.9377794 L42.3652225,31.9377794 C41.6892241,31.9377794 41.0325159,31.7104896 40.5011946,31.2926035 C40.1300664,31.0007332 39.6654224,30.7088629 39.1202624,30.4257991 L39.0651174,30.3987507 C38.9598595,30.3448638 38.8642469,30.2962187 38.765489,30.2482027 L37.5520887,29.722962 C37.4552179,29.6852202 37.3554117,29.6481074 37.2556055,29.6114139 L37.1035897,29.5541721 C36.9754771,29.5078335 36.8461065,29.462753 36.7167358,29.4185111 L36.638736,29.3910434 C36.488188,29.3400919 36.3422528,29.2924953 36.1948499,29.2457373 L36.1254469,29.2230922 C32.5624069,28.0964981 27.9241437,27.4731286 23.0799777,27.4714512 C23.0676068,27.4714512 23.0470584,27.4714512 23.0346875,27.4712415 C14.3752402,27.4712415 8.04572292,29.3908338 5.62793831,31.2928131 C5.09640731,31.7106993 4.43990886,31.937989 3.76370078,31.937989 L3.03339606,31.937989 C1.36814193,31.937989 0.0180322154,30.588089 0.0180322154,28.9226252 L0.0180322154,12.0945843 C0.0180322154,11.7987302 0.0618546925,11.5045535 0.146983524,11.2212799 C0.28557997,10.7633455 3.76370078,0 23.0644616,0 L23.0948648,0 C40.1648728,0.00608063079 44.7492491,8.07906155 45.7521338,10.5679266 C45.7536015,10.5721202 45.7554886,10.5763137 45.7571661,10.5805073 C45.9066657,10.9549902 45.9808913,11.2091187 46.0123429,11.3282152 C46.0779717,11.5785694 46.1113104,11.8356333 46.1113104,12.0943746 L46.1113104,28.9222058 C46.1106813,30.5876696 44.7607813,31.9377794 43.0955272,31.9377794 Z M6.04834054,12.6758088 L6.04834054,24.2472491 C10.4180076,22.473592 16.4944449,21.4403042 23.0644616,21.4403042 C23.0770422,21.4403042 23.0982196,21.4403042 23.1108002,21.4405138 C28.5257068,21.4417719 33.8087266,22.1651573 37.9576038,23.4766865 L38.036023,23.5020574 C38.2090065,23.5572024 38.389748,23.6161216 38.5673443,23.6762989 L38.6577151,23.7077504 C38.8403437,23.7708632 39.0034723,23.8270566 39.1624074,23.8851371 L39.3219716,23.9451047 C39.3228103,23.9453144 39.350907,23.9560079 39.3521651,23.9562176 C39.4827938,24.0048626 39.6132128,24.053298 39.7404867,24.1027817 C39.8031801,24.1271043 39.8635671,24.1516365 39.9241637,24.1763783 L40.0556311,24.2294266 C40.0640182,24.2327814 40.0721956,24.2361363 40.0805827,24.2392814 L40.0805827,12.6414217 C39.411294,11.1856349 36.1172695,6.03345348 23.085639,6.03051801 L23.0424455,6.03051801 C10.1703792,6.03051801 6.70609705,11.3575699 6.04834054,12.6758088 Z" id="Shape"></path>
                            <path d="M36.3053497,69.9649959 C35.3112714,69.9649959 34.3379511,69.4737229 33.7621783,68.5739992 C31.9799244,65.7873929 30.778266,62.3688203 30.1265901,58.2054753 C27.8102891,59.1796343 25.4231173,59.671117 22.9904457,59.671117 C20.557774,59.671117 18.1706022,59.1796343 15.8543012,58.205056 C15.2244318,62.2285465 14.0804345,65.5548612 12.3931643,68.2932418 C11.5196502,69.7110772 9.66128362,70.1516084 8.24407729,69.278304 C6.82624193,68.4047899 6.38508168,66.5470524 7.2590151,65.1296364 C8.99912389,62.3054979 10.0288473,58.2828461 10.3188305,53.1732292 C10.3813142,52.0774576 11.0340384,51.1020405 12.0232942,50.6264933 C13.0125499,50.1507363 14.1819181,50.2505425 15.0766095,50.886912 C17.6459906,52.7142464 20.3084681,53.6403894 22.9904457,53.6403894 C25.6724232,53.6403894 28.3353201,52.7140367 30.9047012,50.8871217 C31.7989732,50.2509619 32.9685511,50.1511557 33.9580165,50.6267029 C34.9472722,51.1022502 35.6002062,52.0776672 35.6624802,53.1734388 C35.9593828,58.4013136 37.0295738,62.4893846 38.8426501,65.3244263 C39.7400674,66.7271649 39.330149,68.5918218 37.9272007,69.4894487 C37.4243954,69.8108834 36.8614129,69.9649959 36.3053497,69.9649959 Z" id="Shape"></path>
                        </g>
                        <path d="M76.6247544,104.339221 L3.05247666,104.339221 L3.05247666,87.7552442 C3.05247666,76.4314323 12.2325517,67.2513572 23.5563637,67.2513572 L36.5217363,77.6955744 C38.4581027,79.2553611 41.2195477,79.2553611 43.1559141,77.6955744 L56.1212867,67.2513572 C67.4450987,67.2513572 76.6251737,76.4314323 76.6251737,87.7552442 L76.6251737,104.339221 L76.6247544,104.339221 Z" id="Shape" fill="#FFECEA"></path>
                        <path d="M76.6247544,107.354585 L3.05247666,107.354585 C1.38722253,107.354585 0.0371128155,106.004685 0.0371128155,104.339221 L0.0371128155,87.7552442 C0.0371128155,74.7869362 10.5878459,64.236203 23.556154,64.236203 C24.2443137,64.236203 24.9117153,64.4716702 25.4476495,64.9031853 L38.4130221,75.3474026 C38.9286177,75.7629822 39.472939,75.8499982 39.8386155,75.8499982 C40.2042921,75.8499982 40.7484037,75.7625629 41.2642089,75.3474026 L54.2295815,64.9031853 C54.7653061,64.4714605 55.4329174,64.236203 56.121077,64.236203 C69.0893851,64.236203 79.6401182,74.7869362 79.6401182,87.7552442 L79.6401182,104.339221 C79.6401182,106.004685 78.2902182,107.354585 76.6247544,107.354585 Z M6.06763082,101.324067 L73.6096002,101.324067 L73.6096002,87.7554539 C73.6096002,78.4567017 66.3153594,70.8294939 57.1474456,70.2967048 L45.0472,80.0441657 C43.5767357,81.2288403 41.7267562,81.8811452 39.8386155,81.8811452 C37.9504748,81.8811452 36.1004953,81.2286306 34.6300311,80.0441657 L22.5297855,70.2967048 C13.3620813,70.8294939 6.06763082,78.4567017 6.06763082,87.7554539 L6.06763082,101.324067 L6.06763082,101.324067 Z" id="Shape" fill="#666666"></path>
                    </g>
                </g>
            </g>
        </g>
    </g>
</svg>