<?xml version="1.0" encoding="UTF-8"?>
<svg width="108px" height="88px" viewBox="0 0 108 88" version="1.1" xmlns="http://www.w3.org/2000/svg" xmlns:xlink="http://www.w3.org/1999/xlink">
    <!-- Generator: Sketch 42 (36781) - http://www.bohemiancoding.com/sketch -->
    <title>lungs</title>
    <desc>Created with Sketch.</desc>
    <defs></defs>
    <g id="Lung&amp;Heart" stroke="none" stroke-width="1" fill="none" fill-rule="evenodd">
        <g id="Especialidades" transform="translate(-751.000000, -456.000000)" fill-rule="nonzero">
            <g id="Group-6" transform="translate(724.000000, 456.000000)">
                <g id="lungs" transform="translate(27.000000, 0.000000)">
                    <g id="Layer_1">
                        <g id="Group" transform="translate(0.000000, 11.322554)" fill="#666666">
                            <path d="M74.6988718,43.834848 C73.1030208,43.834848 71.8095238,42.5413511 71.8095238,40.9455 C71.8095238,30.9449591 63.6734302,22.8086558 53.6726796,22.8086558 C43.671929,22.8086558 35.5358354,30.9447494 35.5358354,40.9455 C35.5358354,42.5413511 34.2423384,43.834848 32.6464874,43.834848 C31.0506363,43.834848 29.7571394,42.5413511 29.7571394,40.9455 C29.7571394,27.7584989 40.4856785,17.0299598 53.6726796,17.0299598 C66.8596807,17.0299598 77.5882199,27.7584989 77.5882199,40.9455 C77.5882199,42.5411414 76.2945132,43.834848 74.6988718,43.834848 Z" id="Shape"></path>
                            <path d="M35.4446259,76.576319 L11.7018594,76.576319 C5.24947146,76.576319 0,71.3270572 0,64.8744596 L0,34.6803535 C0,15.6268018 15.501415,0.1253868 34.5549667,0.1253868 L35.4446259,0.1253868 C41.8972236,0.1253868 47.1464854,5.37485827 47.1464854,11.8272462 C47.1464854,13.4230973 45.8529884,14.7165943 44.2571373,14.7165943 C42.6612863,14.7165943 41.3677893,13.4230973 41.3677893,11.8272462 C41.3677893,8.5611088 38.7107634,5.90408282 35.4446259,5.90408282 L34.5549667,5.90408282 C18.6878752,5.90408282 5.77869602,18.8130523 5.77869602,34.6803535 L5.77869602,64.8744596 C5.77869602,68.140597 8.435722,70.797623 11.7018594,70.797623 L35.4446259,70.797623 C38.7105537,70.797623 41.3677893,68.140597 41.3677893,64.8744596 L41.3677893,33.7728718 C41.3677893,32.1770207 42.6612863,30.8835238 44.2571373,30.8835238 C45.8529884,30.8835238 47.1464854,32.1770207 47.1464854,33.7728718 L47.1464854,64.8746693 C47.1462757,71.3270572 41.8968042,76.576319 35.4446259,76.576319 Z" id="Shape"></path>
                        </g>
                        <path d="M17.3924912,73.4521329 C15.7653982,73.4521329 14.4467401,72.1330553 14.4467401,70.5063818 L14.4467401,46.0033268 C14.4467401,36.8811225 20.551903,29.1583021 28.8911737,26.7067595 C30.7906369,26.1481801 32.6991163,27.5450478 32.6991163,29.5248173 L32.6991163,70.5065914 C32.6991163,72.1336844 31.3800387,73.4523425 29.7533652,73.4523425 L17.3924912,73.4521329 L17.3924912,73.4521329 Z" id="Shape" fill="#FFECEA"></path>
                        <g id="Group" transform="translate(11.532231, 11.322554)" fill="#666666">
                            <path d="M18.2215537,65.018927 L5.86026034,65.018927 C2.64276795,65.018927 0.0251612309,62.4011106 0.0251612309,59.1838279 L0.0251612309,34.6807729 C0.0251612309,24.5464581 6.81806453,15.4714312 16.5441383,12.612067 C17.088879,12.4520835 17.6499744,12.3707288 18.2125376,12.3707288 C21.4346429,12.3707288 24.0566528,14.9866581 24.0566528,18.2022634 L24.0566528,59.1838279 C24.0564431,62.4011106 21.4388364,65.018927 18.2215537,65.018927 Z M18.2125376,18.1492152 C18.2020538,18.1492152 18.1888441,18.1515216 18.1741667,18.1559248 C10.8906194,20.2969359 5.80406693,27.0921456 5.80406693,34.6803535 L5.80406693,59.1836182 C5.80406693,59.2148601 5.82922816,59.2400213 5.86047002,59.2400213 L18.221344,59.2400213 C18.2525859,59.2400213 18.2777471,59.2148601 18.2777471,59.1836182 L18.2777471,18.2020538 C18.2722955,18.1743764 18.2452472,18.1492152 18.2125376,18.1492152 Z" id="Shape"></path>
                            <path d="M84.1204947,76.576319 L60.3777283,76.576319 C53.9251306,76.576319 48.6758688,71.3268476 48.6758688,64.8744596 L48.6758688,33.7728718 C48.6758688,32.1770207 49.9693658,30.8835238 51.5652168,30.8835238 C53.1610679,30.8835238 54.4545649,32.1770207 54.4545649,33.7728718 L54.4545649,64.8746693 C54.4545649,68.1408067 57.1115908,70.7978327 60.3777283,70.7978327 L84.1204947,70.7978327 C87.3866322,70.7978327 90.0436582,68.1408067 90.0436582,64.8746693 L90.0436582,34.6803535 C90.0436582,18.8128426 77.1346887,5.90408282 61.2673875,5.90408282 L60.3777283,5.90408282 C57.1118005,5.90408282 54.4545649,8.5611088 54.4545649,11.8272462 C54.4545649,13.4230973 53.1610679,14.7165943 51.5652168,14.7165943 C49.9693658,14.7165943 48.6758688,13.4230973 48.6758688,11.8272462 C48.6758688,5.37464859 53.9253403,0.1253868 60.3777283,0.1253868 L61.2673875,0.1253868 C80.3209392,0.1253868 95.8223542,15.6268018 95.8223542,34.6803535 L95.8223542,64.8744596 C95.8223542,71.3270572 90.5728827,76.576319 84.1204947,76.576319 Z" id="Shape"></path>
                        </g>
                        <path d="M89.9618842,73.4521329 C91.5889771,73.4521329 92.9076353,72.1330553 92.9076353,70.5063818 L92.9076353,46.0033268 C92.9076353,36.8811225 86.8024723,29.1583021 78.4632017,26.7067595 C76.5637384,26.1481801 74.655259,27.5450478 74.655259,29.5248173 L74.655259,70.5065914 C74.655259,72.1336844 75.9743366,73.4523425 77.6010102,73.4523425 L89.9618842,73.4521329 L89.9618842,73.4521329 Z" id="Shape" fill="#FFECEA"></path>
                        <g id="Group" transform="translate(50.741816, 0.000000)" fill="#666666">
                            <path d="M39.2200686,76.3414809 L26.8591946,76.3414809 C23.6417022,76.3414809 21.0240955,73.7236645 21.0240955,70.5063818 L21.0240955,29.5246076 C21.0240955,26.3094217 23.6456861,23.693073 26.8682107,23.693073 C27.4307739,23.693073 27.9918693,23.774218 28.53661,23.9344112 C38.2626838,26.7937754 45.0555871,35.8685926 45.0555871,46.0031171 L45.0555871,70.5063818 C45.0553774,73.7236645 42.437561,76.3414809 39.2200686,76.3414809 Z M26.8677913,29.4717691 C26.8355011,29.4717691 26.8080334,29.4967206 26.8038399,29.5046883 L26.8027915,70.5061721 C26.8027915,70.5374139 26.8279527,70.5625752 26.8591946,70.5625752 L39.2200686,70.5625752 C39.2513105,70.5625752 39.2764717,70.5374139 39.2764717,70.5061721 L39.2764717,46.0029074 C39.2764717,38.4144899 34.1897095,31.6194898 26.9063719,29.4786884 C26.8916945,29.4744949 26.8784849,29.4717691 26.8677913,29.4717691 Z" id="Shape"></path>
                            <path d="M2.93547693,34.1312097 C1.33962587,34.1312097 0.0461289232,32.8377127 0.0461289232,31.2418616 L0.0461289232,3.0547831 C0.0461289232,1.45893204 1.33962587,0.165435093 2.93547693,0.165435093 C4.531328,0.165435093 5.82482494,1.45893204 5.82482494,3.0547831 L5.82482494,31.2418616 C5.82482494,32.8377127 4.531328,34.1312097 2.93547693,34.1312097 Z" id="Shape"></path>
                        </g>
                    </g>
                </g>
            </g>
        </g>
    </g>
</svg>