<?xml version="1.0" encoding="UTF-8"?>
<svg width="108px" height="94px" viewBox="0 0 108 94" version="1.1" xmlns="http://www.w3.org/2000/svg" xmlns:xlink="http://www.w3.org/1999/xlink">
    <!-- Generator: Sketch 42 (36781) - http://www.bohemiancoding.com/sketch -->
    <title>pulse</title>
    <desc>Created with Sketch.</desc>
    <defs></defs>
    <g id="Lung&amp;Heart" stroke="none" stroke-width="1" fill="none" fill-rule="evenodd">
        <g id="Especialidades" transform="translate(-356.000000, -454.000000)" fill-rule="nonzero">
            <g id="Group-4" transform="translate(341.000000, 454.000000)">
                <g id="pulse" transform="translate(15.000000, 0.000000)">
                    <g id="Layer_1">
                        <g id="Group" transform="translate(0.000000, 26.628969)" fill="#666666">
                            <path d="M46.6986154,43.3926394 C45.4925538,43.3926394 44.3758145,42.7132862 43.827719,41.6181436 L35.1104009,24.2004912 L30.2580575,31.6679252 C29.6655105,32.5793907 28.652142,33.129583 27.5649671,33.129583 L3.21183112,33.129583 C1.43796434,33.1293733 0,31.691409 0,29.9175422 C0,28.1436754 1.43796434,26.7057111 3.21183112,26.7057111 L25.8219228,26.7057111 L32.7798419,15.9981396 C33.4074049,15.0327871 34.5059023,14.4796593 35.6530448,14.5413043 C36.802913,14.6058848 37.8297009,15.2810445 38.3450868,16.3105582 L45.7638757,31.1340877 L53.2971482,2.56707458 C53.6450023,1.2484164 54.7877415,0.292918663 56.1472867,0.184515693 C57.5049447,0.0756933695 58.7866998,0.838078664 59.3391985,2.08481765 L64.8396532,14.4989496 L69.46911,7.32296656 C70.0566248,6.41275904 71.063074,5.85963131 72.1464747,5.85229262 C73.2451817,5.84138942 74.2436632,6.38445265 74.8433392,7.28669246 L79.6583601,14.5358527 L104.142964,14.5358527 C105.91683,14.5358527 107.354795,15.9738171 107.354795,17.7476839 C107.354795,19.5215506 105.91683,20.959515 104.142964,20.959515 L77.9358642,20.959515 C76.8600119,20.959515 75.8556594,20.420855 75.2603867,19.5249055 L72.2070713,14.9279486 L67.0121158,22.9808005 C66.3723915,23.9725724 65.2388781,24.5340872 64.0630099,24.4418293 C62.886303,24.3499908 61.8549022,23.6198958 61.3766291,22.5408983 L57.1740746,13.055953 L49.8053984,40.9995967 C49.4646734,42.2916259 48.3594664,43.2378978 47.030534,43.3752362 C46.9191956,43.3867684 46.8086958,43.3926394 46.6986154,43.3926394 Z" id="Shape"></path>
                            <path d="M51.9736675,66.6996972 C51.5069267,66.6996972 51.0399761,66.5982136 50.6074127,66.3946173 C35.2867392,59.1932633 19.9075659,45.8972302 10.4710559,31.6951832 C9.81581551,30.7094919 9.75605759,29.4430433 10.3156853,28.3999006 C10.8748937,27.3567579 11.9626975,26.7059208 13.1461141,26.7059208 L25.8219228,26.7059208 L32.7798419,15.9981396 C33.4071952,15.0327871 34.5048539,14.4767239 35.6530448,14.5413043 C36.802913,14.6058848 37.8297009,15.2810445 38.3450868,16.3105582 L45.7638757,31.1340877 L53.2971482,2.56707458 C53.6450023,1.2484164 54.7877415,0.292918663 56.1472867,0.184515693 C57.5049447,0.0756933695 58.7866998,0.838078664 59.3391985,2.08481765 L64.8396532,14.4989496 L69.46911,7.32296656 C70.0566248,6.41275904 71.063074,5.85963131 72.1464747,5.85229262 L72.1680714,5.85229262 C73.2432946,5.85229262 74.2480665,6.39053328 74.8435489,7.28690213 L80.6115514,15.9708816 C81.5930491,17.4486846 81.1908888,19.4418734 79.7135052,20.4233711 C78.2354925,21.4046591 76.2423037,21.0024988 75.2610157,19.5253248 L72.207281,14.9283679 L67.0125352,22.9812199 C66.3723915,23.9729917 65.2374103,24.5345065 64.0634292,24.4422487 C62.8867223,24.3504102 61.8553216,23.6203151 61.3770485,22.541108 L57.1744939,13.0561627 L49.8058178,40.9998063 C49.4650928,42.2918355 48.3598857,43.2381075 47.0309534,43.3754459 C45.6997146,43.5119456 44.4261369,42.8130924 43.8281384,41.6183533 L35.1108202,24.2007009 L30.2584769,31.6681348 C29.6659299,32.5796004 28.6525613,33.1297927 27.5653865,33.1297927 L19.4378895,33.1297927 C27.9419662,43.9614929 40.1017601,54.028711 51.9738772,59.9212616 C63.0146253,54.4400971 74.4933885,45.2493285 82.932675,35.0911106 C84.0663981,33.7265332 86.0908288,33.5395014 87.4554062,34.6730148 C88.819774,35.8065283 89.0070155,37.8313783 87.873502,39.1957461 C78.5133144,50.4629453 65.6037159,60.630389 53.340132,66.394827 C52.9073588,66.5982136 52.4401986,66.6996972 51.9736675,66.6996972 Z" id="Shape"></path>
                        </g>
                        <path d="M35.4729323,44.3772822 L46.6998735,66.8097776 L56.4026732,30.0152516 L64.3131545,47.869032 L72.1678617,35.6933027 L77.9360739,44.3772822 L97.1621897,44.3772822 C97.9509943,42.2765291 98.5712187,40.1810179 98.9953951,38.1073132 C99.4325715,35.9648344 99.6695064,33.8340975 99.6695064,31.7490701 C99.6695064,16.0956394 87.1530521,3.39928229 71.710766,3.39928229 C64.0093326,3.39928229 57.0363168,6.56162965 51.9734578,11.6697789 C46.9108085,6.56141998 39.9377927,3.39928229 32.2361496,3.39928229 C16.7942829,3.39928229 4.27740925,16.0956394 4.27740925,31.7490701 C4.27740925,33.8340975 4.51434417,35.9648344 4.95152056,38.1073132 C6.19825954,44.2040891 9.11780103,50.4847517 13.1456947,56.5469309 L27.5645478,56.5469309 L35.4729323,44.3772822 Z" id="Shape" fill="#FFECEA"></path>
                        <path d="M46.6986154,70.0216087 C45.4925538,70.0216087 44.3758145,69.3422555 43.827719,68.2475323 L35.1104009,50.8298799 L30.2580575,58.2973138 C29.6655105,59.2087794 28.652142,59.7589717 27.5649671,59.7589717 L13.1461141,59.7589717 C12.0704715,59.7589717 11.066119,59.220731 10.4710559,58.3245718 C6.00116324,51.5979264 3.08602496,45.0121839 1.80531831,38.751231 C1.31488399,36.345398 1.06620716,33.9900971 1.06620716,31.7492798 C1.06620716,14.3460951 15.0491419,0.187660847 32.236569,0.187660847 C39.5108905,0.187660847 46.4126161,2.69980007 51.9738772,7.3189827 C57.5351382,2.69980007 64.4368638,0.187660847 71.7111854,0.187660847 C88.8986125,0.187660847 102.881338,14.3460951 102.881338,31.7492798 C102.881338,33.9911455 102.632661,36.3462367 102.142646,38.7495536 C101.695195,40.9373226 101.031358,43.2104301 100.169376,45.5063925 C99.6992805,46.7592121 98.5007672,47.5891133 97.1626091,47.5891133 L77.9362836,47.5891133 C76.8604313,47.5891133 75.8560788,47.0504533 75.260806,46.1545038 L72.207281,41.5575469 L67.0123255,49.6103989 C66.3726012,50.6021707 65.2390878,51.1636855 64.0632196,51.0714277 C62.8865127,50.9795892 61.8551119,50.2494941 61.3768388,49.170287 L57.1742842,39.6853417 L49.8056081,67.6289853 C49.4648831,68.9210145 48.359676,69.8672865 47.0307437,70.0046249 C46.9191956,70.0157378 46.8084861,70.0216087 46.6986154,70.0216087 Z M35.4725129,41.1654511 C35.5324805,41.1654511 35.5926578,41.1671285 35.6530448,41.170693 C36.802913,41.2352735 37.8297009,41.9104332 38.3450868,42.9399469 L45.7638757,57.7634764 L53.2971482,29.1964633 C53.6450023,27.8778051 54.7877415,26.9223073 56.1472867,26.8139044 C57.5049447,26.705082 58.7866998,27.4674673 59.3391985,28.7142063 L64.8396532,41.1283383 L69.46911,33.9523552 C70.0566248,33.0421477 71.063074,32.48902 72.1464747,32.4816813 C73.2451817,32.4707781 74.2440826,33.0138413 74.8433392,33.9160811 L79.6583601,41.1652414 L94.87755,41.1652414 C95.2780329,39.9036154 95.6030321,38.6648441 95.8487735,37.4633953 C96.2528209,35.4829968 96.4576753,33.5600497 96.4576753,31.7486508 C96.4576753,17.8873287 85.3565402,6.61048438 71.7111854,6.61048438 C65.1325719,6.61048438 58.9328446,9.21005888 54.2553718,13.9300961 C53.6521313,14.5387882 52.8310364,14.8811906 51.9740868,14.8811906 C51.1171373,14.8811906 50.2960424,14.5387882 49.6928019,13.9300961 C45.0151194,9.21005888 38.8156018,6.61048438 32.2369883,6.61048438 C18.5914238,6.61048438 7.49007907,17.8873287 7.49007907,31.7486508 C7.49007907,33.5594207 7.69493343,35.4825774 8.09940021,37.4652824 C9.12451069,42.478448 11.4081021,47.8113709 14.8925132,53.3348901 L25.8221325,53.3348901 L32.7800516,42.6271089 C33.374276,41.7124982 34.3895316,41.1654511 35.4725129,41.1654511 Z" id="Shape" fill="#666666"></path>
                    </g>
                </g>
            </g>
        </g>
    </g>
</svg>