<?xml version="1.0" encoding="UTF-8"?>
<svg width="64px" height="108px" viewBox="0 0 64 108" version="1.1" xmlns="http://www.w3.org/2000/svg" xmlns:xlink="http://www.w3.org/1999/xlink">
    <!-- Generator: Sketch 42 (36781) - http://www.bohemiancoding.com/sketch -->
    <title>blood-test</title>
    <desc>Created with Sketch.</desc>
    <defs></defs>
    <g id="Lung&amp;Heart" stroke="none" stroke-width="1" fill="none" fill-rule="evenodd">
        <g id="Especialidades" transform="translate(-570.000000, -456.000000)" fill-rule="nonzero">
            <g id="Group-5" transform="translate(539.000000, 456.000000)">
                <g id="blood-test" transform="translate(30.892863, 0.000000)">
                    <g id="Layer_1">
                        <rect id="Rectangle-path" fill="#FFECEA" x="13.1446464" y="2.9702833" width="27.1481294" height="29.3017211"></rect>
                        <g id="Group" fill="#666666">
                            <path d="M40.291308,35.2418683 L13.143598,35.2418683 C11.5030857,35.2418683 10.1733147,33.9120973 10.1733147,32.271585 L10.1733147,2.9702833 C10.1733147,1.32977105 11.5032954,0 13.143598,0 L40.291308,0 C41.9314009,0 43.2615913,1.32977105 43.2615913,2.9702833 L43.2615913,32.271585 C43.2615913,33.9120973 41.9314009,35.2418683 40.291308,35.2418683 Z M16.1138813,29.3013017 L37.3210247,29.3013017 L37.3210247,5.94056661 L16.1138813,5.94056661 L16.1138813,29.3013017 Z" id="Shape"></path>
                            <path d="M26.717453,107.354585 C15.9163656,107.354585 7.12922509,98.5674445 7.12922509,87.7665668 L7.12922509,18.3624566 C7.12922509,16.7219444 8.45899614,15.3921733 10.0995084,15.3921733 L43.3351879,15.3921733 C44.9752808,15.3921733 46.3054712,16.7219444 46.3054712,18.3624566 L46.3054712,42.4058998 C46.3054712,44.046412 44.9754905,45.3761831 43.3351879,45.3761831 C41.695095,45.3761831 40.3649046,44.046412 40.3649046,42.4058998 L40.3649046,21.3327399 L13.0697917,21.3327399 L13.0697917,87.7663571 C13.0697917,95.2914522 19.1921482,101.413809 26.7176627,101.413809 C34.2427578,101.413809 40.3651143,95.2914522 40.3651143,87.7663571 C40.3651143,86.1258448 41.695095,84.7960738 43.3353976,84.7960738 C44.9754905,84.7960738 46.3056809,86.1258448 46.3056809,87.7663571 C46.3054712,98.5674445 37.5183307,107.354585 26.717453,107.354585 Z" id="Shape"></path>
                            <path d="M50.3459455,20.870612 L3.08896044,20.870612 C1.44844819,20.870612 0.118677139,19.5408409 0.118677139,17.9003287 C0.118677139,16.2598164 1.44844819,14.9300454 3.08896044,14.9300454 L50.3459455,14.9300454 C51.9860384,14.9300454 53.3162288,16.2598164 53.3162288,17.9003287 C53.3162288,19.5408409 51.9860384,20.870612 50.3459455,20.870612 Z" id="Shape"></path>
                        </g>
                        <path d="M60.652405,87.4992287 C60.652405,96.8244002 53.0927132,104.384092 43.7675417,104.384092 C34.4423702,104.384092 26.8826784,96.8244002 26.8826784,87.4992287 C26.8826784,72.794586 43.7675417,57.9494598 43.7675417,57.9494598 C43.7675417,57.9494598 60.652405,72.7245539 60.652405,87.4992287 Z" id="Shape" fill="#FFECEA"></path>
                        <path d="M43.767332,107.354585 C32.8192611,107.354585 23.9123951,98.4477189 23.9123951,87.499648 C23.9123951,71.6340243 41.0757094,56.3613668 41.8064335,55.7189167 C42.9258986,54.7344835 44.6012172,54.7328061 45.7236177,55.7145135 C46.4545515,56.3540281 63.6231077,71.560218 63.6231077,87.499648 C63.6226883,98.4472996 54.7154029,107.354585 43.767332,107.354585 Z M43.7713159,62.0559824 C39.5259872,66.3191336 29.8529617,77.1671886 29.8529617,87.499648 C29.8529617,95.172146 36.0950437,101.414228 43.7675417,101.414228 C51.4400397,101.414228 57.6823314,95.172146 57.6823314,87.499648 C57.6821217,77.1195919 48.0185317,66.3063433 43.7713159,62.0559824 Z" id="Shape" fill="#666666"></path>
                    </g>
                </g>
            </g>
        </g>
    </g>
</svg>