<?xml version="1.0" encoding="UTF-8"?>
<svg width="320px" height="296px" viewBox="0 0 320 296" version="1.1" xmlns="http://www.w3.org/2000/svg" xmlns:xlink="http://www.w3.org/1999/xlink">
    <!-- Generator: Sketch 42 (36781) - http://www.bohemiancoding.com/sketch -->
    <title>Group Copy</title>
    <desc>Created with Sketch.</desc>
    <defs></defs>
    <g id="Lung&amp;Heart" stroke="none" stroke-width="1" fill="none" fill-rule="evenodd">
        <g id="Group-Copy">
            <g id="Page-1">
                <path d="M242.522086,98.347966 C239.117578,93.9837996 225.692944,81.4345426 209.239649,81.0334914 C198.237944,80.7709851 188.13754,85.8971488 179.21576,96.3171885 C179.153727,96.3973987 172.384851,104.604365 158.04797,122.658961 L159.741101,124.780887 C174.063386,106.740874 181.098639,98.2021292 181.138778,98.1547322 C189.51321,88.3690826 198.942199,83.5418844 209.184914,83.7861611 C224.678525,84.1653367 237.333222,95.9963475 240.544333,100.112591 C248.090444,109.785217 251.228576,132.28419 235.235053,163.861505 C215.023298,203.769746 155.657881,256.012136 115.030028,277.942345 L114.957048,277.98245 C99.784548,287.421737 83.3640934,292.562485 67.4763914,292.846867 C52.7125783,293.098435 38.9558864,289.270219 27.7024015,281.741394 C10.3551035,270.13643 1.25452273,251.290669 2.73236364,230.038601 L2.73601263,229.932869 C2.68127778,204.086941 46.0896616,121.26622 46.5238914,120.43495 C46.6333611,120.230779 57.4635631,99.7151861 71.9208611,76.0969155 C91.0233232,44.902423 107.753942,22.5055357 120.306467,11.3162069 C128.498449,3.81654918 135.621278,1.2279459 141.485205,3.62331541 C152.238778,8.02029508 156.274561,27.8358709 157.237894,33.6328839 L159.857869,33.6328839 C159.007654,28.1020231 154.876997,6.1572299 142.40475,1.05294173 C135.595735,-1.73254124 127.597149,1.01648253 118.646177,9.20886503 C105.725104,20.7226808 89.2791061,42.7185168 69.7679571,74.5875046 C55.2559242,98.2823394 44.3892323,118.878142 44.2797626,119.082314 C42.4771616,122.509479 0.159825758,203.266609 0.159825758,229.889118 C-1.37275,252.172982 8.1657096,271.919285 26.3376793,284.074783 C37.64225,291.636421 51.3478561,295.61412 66.0569343,295.61412 C66.54225,295.61412 67.0312146,295.610474 67.5201793,295.599536 C83.8348131,295.307863 100.678551,290.0468 116.219598,280.385112 C139.781126,267.66085 165.794775,248.016633 189.473071,225.058274 C211.564056,203.645785 229.071909,181.814015 237.501076,165.174036 C254.107629,132.38263 250.586354,108.680504 242.522086,98.347966" id="Fill-1" fill="#2F4368"></path>
                <path d="M243.865279,112.855447 C240.727148,101.064541 232.038903,92.580485 218.030431,87.6366173 L217.913663,87.5965122 C216.968574,87.2939008 194.669597,80.4869679 178.373208,104.874528 L161.420001,126.534939 L167.937097,133.476771 L185.401163,110.915817 L185.623751,110.60956 C197.9099,92.0846398 214.180746,96.4925573 215.282741,96.8206901 C226.382968,100.758284 232.896415,106.8652 235.19163,115.491447 C239.471895,131.580892 228.623448,157.776829 205.434117,187.359824 C181.668246,217.672004 137.705216,249.019625 137.267337,249.333175 L137.070292,249.479011 C136.760128,249.726934 105.761958,274.154599 78.803221,279.838588 C48.8705568,286.14603 27.5349129,265.728877 25.1995593,263.380905 C21.5104306,259.669358 9.84460985,245.833091 14.6941174,223.687772 C18.9670846,204.171162 38.0440038,161.667025 49.0894962,139.415975 C60.3831199,116.052919 84.0249255,77.8145085 84.2657588,77.4316869 L84.3095467,77.3587685 C84.4883472,77.059803 102.368398,47.166904 125.827754,21.1933691 C130.757539,15.7317807 134.97942,13.2780765 137.705216,14.2770586 C142.109547,15.8922012 145.196592,26.0315051 146.232905,33.6332485 L155.333486,33.6332485 C154.808032,29.1013698 151.88884,9.30037763 140.642653,5.1622583 C134.231378,2.8069939 127.064761,5.9424852 119.33985,14.4958138 C95.4645088,40.9360265 77.7559609,70.4132907 76.7269457,72.1414568 C75.4753422,74.1685884 52.5231957,111.313223 41.0982083,134.942431 C33.0193447,151.22511 10.9429558,198.512694 5.91464773,221.492929 C-0.0332058081,248.655033 14.4423371,265.794504 19.0218194,270.402947 C21.346226,272.739982 40.0728422,290.681555 67.4110745,290.677909 C71.5964659,290.677909 75.9862008,290.254982 80.5474381,289.296105 C109.013208,283.29492 140.007729,259.144346 142.35038,257.295864 C145.280519,255.210398 188.068574,224.515396 212.341655,193.554243 C227.120064,174.704836 250.864042,139.157114 243.865279,112.855447" id="Fill-2" fill="#2F4368"></path>
                <path d="M76.9542778,98.347966 C80.3587854,93.9837996 93.7834192,81.4345426 110.233066,81.0334914 C121.238419,80.7709851 131.338823,85.8971488 140.260604,96.3171885 C140.322636,96.3973987 147.087864,104.604365 161.428394,122.658961 L159.735263,124.780887 C145.412977,106.740874 138.377725,98.2021292 138.337586,98.1547322 C129.959505,88.3690826 120.534164,83.5418844 110.291449,83.7861611 C94.7978384,84.1653367 82.1431414,95.9963475 78.9320303,100.112591 C71.3822702,109.785217 68.2441389,132.28419 84.2413106,163.861505 C104.453066,203.769746 163.818482,256.012136 204.449985,277.942345 L204.515667,277.98245 C219.688167,287.421737 236.11227,292.562485 251.999972,292.846867 C266.763785,293.098435 280.520477,289.270219 291.773962,281.741394 C309.117611,270.13643 318.221841,251.290669 316.744,230.038601 L316.740351,229.932869 C316.791437,204.086941 273.386702,121.26622 272.948823,120.43495 C272.843003,120.230779 262.012801,99.7151861 247.555503,76.0969155 C228.45304,44.902423 211.722422,22.5055357 199.169896,11.3162069 C190.974265,3.81654918 183.851437,1.2279459 177.991159,3.62331541 C167.237586,8.02029508 163.201803,27.8358709 162.23847,33.6328839 L159.618495,33.6328839 C160.46871,28.1020231 164.599366,6.1572299 177.067965,1.05294173 C183.880629,-1.73254124 191.875566,1.01648253 200.830187,9.20886503 C213.75126,20.7226808 230.193609,42.7185168 249.708407,74.5875046 C264.21679,98.2823394 275.087131,118.878142 275.192952,119.082314 C276.995553,122.509479 319.312889,203.266609 319.312889,229.889118 C320.845465,252.172982 311.310654,271.919285 293.138684,284.074783 C281.834114,291.636421 268.128508,295.61412 253.419429,295.61412 C252.934114,295.61412 252.445149,295.610474 251.956184,295.599536 C235.641551,295.307863 218.797813,290.0468 203.256765,280.385112 C179.695237,267.66085 153.681588,248.016633 130.003293,225.058274 C107.912308,203.645785 90.4044545,181.814015 81.9752879,165.174036 C65.3687348,132.38263 68.8900101,108.680504 76.9542778,98.347966" id="Fill-3" fill="#A44540"></path>
                <path d="M75.6107197,112.853624 C78.748851,101.066364 87.437096,92.5823079 101.445568,87.6384403 L101.562336,87.5946892 C102.507424,87.2920778 124.806402,80.4887909 141.099141,104.872705 L158.052348,126.536762 L151.779735,133.478594 L134.074836,110.91764 L133.852247,110.611383 C121.562449,92.0864628 105.295253,96.4943802 104.189609,96.8188671 C93.0893813,100.756461 86.5795833,106.863377 84.2843687,115.489624 C80.0041035,131.57907 90.8489015,157.775006 114.041881,187.361647 C137.804104,217.670181 181.767134,249.017802 182.208662,249.331352 L182.405707,249.480834 C182.715871,249.725111 213.71404,274.152776 240.672778,279.836765 C270.605442,286.147853 291.941086,265.7307 294.276439,263.382728 C297.965568,259.667535 309.62774,245.831268 304.781881,223.689595 C300.508914,204.169339 281.428346,161.665202 270.386503,139.417798 C259.092879,116.054742 235.447424,77.8126855 235.21024,77.4298639 L235.166452,77.3569455 C234.987652,77.0579801 217.103952,47.1687269 193.648245,21.1915461 C188.71846,15.7299578 184.496578,13.2798994 181.770783,14.2788816 C177.366452,15.8940242 174.279407,26.0296821 173.243093,33.6350715 L164.142513,33.6350715 C164.667967,29.1031928 167.587159,9.30220059 178.829697,5.16408126 C185.244621,2.80517094 192.411237,5.94430816 200.1325,14.4939908 C224.01149,40.9342035 241.720038,70.4151136 242.749053,72.1432797 C244.000657,74.1667654 266.949154,111.3114 278.37779,134.940608 C286.453005,151.226933 308.533043,198.510871 313.561351,221.494751 C319.505556,248.65321 305.033662,265.796327 300.454179,270.401124 C298.129773,272.738159 279.403157,290.679732 252.064924,290.679732 C247.879533,290.679732 243.489798,290.256805 238.928561,289.294282 C210.46279,283.293097 179.46827,259.146169 177.125619,257.297687 C174.19548,255.208575 131.407424,224.513573 107.134343,193.55242 C92.3559343,174.706659 68.6119571,139.158937 75.6107197,112.853624" id="Fill-4" fill="#A44540"></path>
            </g>
        </g>
    </g>
</svg>