<?xml version="1.0" encoding="UTF-8"?>
<svg width="367px" height="113px" viewBox="0 0 367 113" version="1.1" xmlns="http://www.w3.org/2000/svg" xmlns:xlink="http://www.w3.org/1999/xlink">
    <!-- Generator: Sketch 42 (36781) - http://www.bohemiancoding.com/sketch -->
    <title>Page 1</title>
    <desc>Created with Sketch.</desc>
    <defs></defs>
    <g id="Lung&amp;Heart" stroke="none" stroke-width="1" fill="none" fill-rule="evenodd">
        <g id="Portada" transform="translate(-329.000000, -353.000000)" fill="#9D9D9C">
            <g id="Page-1" transform="translate(329.000000, 353.000000)">
                <polygon id="Fill-1" points="9.09883019 104.11451 2.26893711 104.11451 2.26893711 110.44251 9.87899371 110.44251 9.87899371 112.342755 0.0023081761 112.342755 0.0023081761 94.7908571 9.48891195 94.7908571 9.48891195 96.6887959 2.26893711 96.6887959 2.26893711 102.237327 9.09883019 102.237327"></polygon>
                <path d="M12.7427478,103.148706 C12.7427478,101.848053 12.7150497,100.780318 12.6365717,99.7356449 L14.6700748,99.7356449 L14.8016409,101.82038 L14.8524208,101.82038 C15.4779365,100.623502 16.9390119,99.4519918 19.023295,99.4519918 C20.7705843,99.4519918 23.4826912,100.494359 23.4826912,104.816033 L23.4826912,112.343216 L21.1883642,112.343216 L21.1883642,105.076624 C21.1883642,103.044931 20.4312824,101.352237 18.2685214,101.352237 C16.756666,101.352237 15.5841126,102.419971 15.1917226,103.697563 C15.0878547,103.981216 15.0370748,104.373257 15.0370748,104.762992 L15.0370748,112.343216 L12.7427478,112.343216 L12.7427478,103.148706 Z" id="Fill-2"></path>
                <path d="M27.4395975,112.343447 L27.4395975,101.48161 L25.6669182,101.48161 L25.6669182,99.7358755 L27.4395975,99.7358755 L27.4395975,99.1385898 C27.4395975,97.3674878 27.8319874,95.753202 28.8983648,94.736202 C29.7616226,93.9013857 30.906478,93.5646918 31.9751635,93.5646918 C32.7830252,93.5646918 33.4870189,93.7468755 33.9324969,93.9290592 L33.6185849,95.7024673 C33.279283,95.545651 32.8107233,95.414202 32.1575094,95.414202 C30.2024843,95.414202 29.7085346,97.1322633 29.7085346,99.0601816 L29.7085346,99.7358755 L32.7576352,99.7358755 L32.7576352,101.48161 L29.7085346,101.48161 L29.7085346,112.343447 L27.4395975,112.343447 Z" id="Fill-3"></path>
                <path d="M42.4773648,104.815571 C42.5050629,103.358102 41.8795472,101.091184 39.2966981,101.091184 C36.9792893,101.091184 35.9613836,103.226653 35.7790377,104.815571 L42.4773648,104.815571 Z M35.7513396,106.457531 C35.8044277,109.556959 37.7871509,110.832245 40.0791698,110.832245 C41.7225912,110.832245 42.7127987,110.546286 43.5737484,110.181918 L43.9638302,111.821571 C43.1559686,112.185939 41.7756792,112.603347 39.767566,112.603347 C35.8829057,112.603347 33.5631887,110.050469 33.5631887,106.24998 C33.5631887,102.447184 35.8044277,99.4515306 39.4813522,99.4515306 C43.5991384,99.4515306 44.695522,103.069837 44.695522,105.389796 C44.695522,105.857939 44.642434,106.222306 44.617044,106.457531 L35.7513396,106.457531 Z" id="Fill-4"></path>
                <path d="M47.5318088,103.670812 C47.5318088,102.185669 47.5041107,100.910384 47.4256327,99.7365673 L49.4337459,99.7365673 L49.5122239,102.213343 L49.6184,102.213343 C50.1885195,100.518343 51.5734252,99.4529143 53.1083623,99.4529143 C53.3714943,99.4529143 53.5538403,99.4759755 53.7615761,99.5313224 L53.7615761,101.689853 C53.5261421,101.639118 53.2930164,101.613751 52.9791044,101.613751 C51.361073,101.613751 50.2162176,102.838302 49.9046138,104.556363 C49.8515258,104.869996 49.7984377,105.232057 49.7984377,105.624098 L49.7984377,112.344139 L47.5318088,112.344139 L47.5318088,103.670812 Z" id="Fill-5"></path>
                <path d="M56.1583862,103.148706 C56.1583862,101.848053 56.1306881,100.780318 56.0522101,99.7356449 L58.0603233,99.7356449 L58.1664994,101.769645 L58.2449774,101.769645 C58.9466629,100.570461 60.1215245,99.4519918 62.2058075,99.4519918 C63.9253987,99.4519918 65.2295182,100.494359 65.776556,101.977196 L65.829644,101.977196 C66.2197258,101.273829 66.7159836,100.727278 67.2353233,100.337543 C67.992405,99.7633184 68.8256566,99.4519918 70.0259082,99.4519918 C71.6947195,99.4519918 74.1713925,100.545094 74.1713925,104.919808 L74.1713925,112.343216 L71.9301535,112.343216 L71.9301535,105.208073 C71.9301535,102.786645 71.0415057,101.326869 69.1903484,101.326869 C67.8885371,101.326869 66.8706314,102.290829 66.4805497,103.411604 C66.3766818,103.722931 66.2982038,104.138033 66.2982038,104.555441 L66.2982038,112.343216 L64.0569648,112.343216 L64.0569648,104.790665 C64.0569648,102.786645 63.1706252,101.326869 61.4233358,101.326869 C59.9899585,101.326869 58.9466629,102.473012 58.5819711,103.619155 C58.4527132,103.958155 58.3996252,104.34789 58.3996252,104.737624 L58.3996252,112.343216 L56.1583862,112.343216 L56.1583862,103.148706 Z" id="Fill-6"></path>
                <path d="M85.8955421,104.815571 C85.9209321,103.358102 85.2954164,101.091184 82.7125673,101.091184 C80.3951585,101.091184 79.3772528,103.226653 79.1949069,104.815571 L85.8955421,104.815571 Z M79.1672088,106.457531 C79.222605,109.556959 81.2030201,110.832245 83.495039,110.832245 C85.1384604,110.832245 86.1286679,110.546286 86.9896176,110.181918 L87.3796994,111.821571 C86.5718377,112.185939 85.1915484,112.603347 83.181127,112.603347 C79.2987748,112.603347 76.9790579,110.050469 76.9790579,106.24998 C76.9790579,102.447184 79.222605,99.4515306 82.8972214,99.4515306 C87.0150075,99.4515306 88.1113912,103.069837 88.1113912,105.389796 C88.1113912,105.857939 88.0583031,106.222306 88.0329132,106.457531 L79.1672088,106.457531 Z" id="Fill-7"></path>
                <path d="M99.5495579,104.869535 C99.5495579,104.583576 99.5218597,104.191535 99.4433818,103.903269 C99.1063881,102.448106 97.8553566,101.248922 96.1334572,101.248922 C93.7629604,101.248922 92.3526648,103.333657 92.3526648,106.119453 C92.3526648,108.672331 93.6036962,110.782433 96.0826774,110.782433 C97.6199226,110.782433 99.0279101,109.765433 99.4433818,108.047371 C99.5218597,107.733739 99.5495579,107.422412 99.5495579,107.055739 L99.5495579,104.869535 Z M101.843885,93.8508816 L101.843885,109.087433 C101.843885,110.208208 101.871583,111.483494 101.947753,112.343678 L99.8888597,112.343678 L99.7849918,110.155167 L99.7319038,110.155167 C99.0279101,111.561902 97.4883566,112.629637 95.4294635,112.629637 C92.3803629,112.629637 90.035256,110.051392 90.035256,106.223229 C90.0075579,102.030698 92.6157969,99.4524531 95.6902874,99.4524531 C97.6199226,99.4524531 98.9240421,100.363371 99.498778,101.378065 L99.5495579,101.378065 L99.5495579,93.8508816 L101.843885,93.8508816 Z" id="Fill-8"></path>
                <path d="M112.291152,105.91121 C109.789089,105.858169 106.947724,106.300945 106.947724,108.750047 C106.947724,110.232884 107.937931,110.936251 109.110485,110.936251 C110.753906,110.936251 111.794894,109.893884 112.161894,108.828455 C112.240372,108.593231 112.291152,108.332639 112.291152,108.097414 L112.291152,105.91121 Z M112.630453,112.342986 L112.448108,110.754067 L112.36963,110.754067 C111.665636,111.7457 110.310736,112.631251 108.510359,112.631251 C105.955208,112.631251 104.653397,110.832476 104.653397,109.010639 C104.653397,105.961945 107.365504,104.296924 112.240372,104.319986 L112.240372,104.0617 C112.240372,103.019333 111.95185,101.144455 109.371309,101.144455 C108.198755,101.144455 106.975422,101.508822 106.086774,102.083047 L105.565126,100.570231 C106.608422,99.8945367 108.120277,99.4517612 109.710611,99.4517612 C113.569881,99.4517612 114.507001,102.083047 114.507001,104.608251 L114.507001,109.321965 C114.507001,110.417373 114.557781,111.482802 114.714736,112.342986 L112.630453,112.342986 Z" id="Fill-9"></path>
                <path d="M126.808656,104.869535 C126.808656,104.583576 126.780958,104.191535 126.70248,103.903269 C126.365486,102.448106 125.114455,101.248922 123.392555,101.248922 C121.022058,101.248922 119.611763,103.333657 119.611763,106.119453 C119.611763,108.672331 120.862794,110.782433 123.341775,110.782433 C124.879021,110.782433 126.287008,109.765433 126.70248,108.047371 C126.780958,107.733739 126.808656,107.422412 126.808656,107.055739 L126.808656,104.869535 Z M129.102983,93.8508816 L129.102983,109.087433 C129.102983,110.208208 129.130681,111.483494 129.206851,112.343678 L127.147958,112.343678 L127.04409,110.155167 L126.991002,110.155167 C126.287008,111.561902 124.747455,112.629637 122.688562,112.629637 C119.639461,112.629637 117.294354,110.051392 117.294354,106.223229 C117.266656,102.030698 119.874895,99.4524531 122.949386,99.4524531 C124.879021,99.4524531 126.18314,100.363371 126.757876,101.378065 L126.808656,101.378065 L126.808656,93.8508816 L129.102983,93.8508816 Z" id="Fill-10"></path>
                <path d="M140.906765,104.815571 C140.932155,103.358102 140.306639,101.091184 137.72379,101.091184 C135.406381,101.091184 134.388475,103.226653 134.20613,104.815571 L140.906765,104.815571 Z M134.178431,106.457531 C134.233828,109.556959 136.214243,110.832245 138.506262,110.832245 C140.149683,110.832245 141.139891,110.546286 142.00084,110.181918 L142.390922,111.821571 C141.58306,112.185939 140.202771,112.603347 138.19235,112.603347 C134.309997,112.603347 131.990281,110.050469 131.990281,106.24998 C131.990281,102.447184 134.233828,99.4515306 137.908444,99.4515306 C142.02623,99.4515306 143.122614,103.069837 143.122614,105.389796 C143.122614,105.857939 143.069526,106.222306 143.044136,106.457531 L134.178431,106.457531 Z" id="Fill-11"></path>
                <path d="M145.645219,109.999965 C146.321515,110.440435 147.521767,110.910884 148.671238,110.910884 C150.337742,110.910884 151.117905,110.078373 151.117905,109.036006 C151.117905,107.940598 150.469308,107.343312 148.772798,106.718353 C146.506169,105.91121 145.437484,104.661292 145.437484,103.148476 C145.437484,101.119088 147.078597,99.4517612 149.790704,99.4517612 C151.067125,99.4517612 152.188899,99.8138224 152.892892,100.231231 L152.318157,101.898557 C151.824207,101.587231 150.910169,101.169822 149.737616,101.169822 C148.382716,101.169822 147.627943,101.951598 147.627943,102.887884 C147.627943,103.930251 148.382716,104.398394 150.02383,105.023353 C152.216597,105.858169 153.333754,106.953578 153.333754,108.828455 C153.333754,111.042333 151.614163,112.603578 148.615842,112.603578 C147.235553,112.603578 145.959131,112.264578 145.070484,111.7457 L145.645219,109.999965 Z" id="Fill-12"></path>
                <path d="M174.157657,111.769914 C173.324406,112.187322 171.655594,112.602424 169.518223,112.602424 C164.564877,112.602424 160.837173,109.477629 160.837173,103.721547 C160.837173,98.2260571 164.564877,94.5016694 170.014481,94.5016694 C172.202632,94.5016694 173.582921,94.9721184 174.185355,95.285751 L173.636009,97.1329551 C172.777368,96.7155469 171.549418,96.4019143 170.090651,96.4019143 C165.972865,96.4019143 163.235368,99.0355061 163.235368,103.643139 C163.235368,107.941751 165.709733,110.704486 169.986783,110.704486 C171.367072,110.704486 172.777368,110.41622 173.689097,109.973445 L174.157657,111.769914 Z" id="Fill-13"></path>
                <path d="M183.380898,105.91121 C180.878835,105.858169 178.03747,106.300945 178.03747,108.750047 C178.03747,110.232884 179.027678,110.936251 180.200231,110.936251 C181.843653,110.936251 182.88464,109.893884 183.25164,108.828455 C183.330118,108.593231 183.380898,108.332639 183.380898,108.097414 L183.380898,105.91121 Z M183.7202,112.342986 L183.537854,110.754067 L183.459376,110.754067 C182.755382,111.7457 181.400483,112.631251 179.600106,112.631251 C177.044955,112.631251 175.743143,110.832476 175.743143,109.010639 C175.743143,105.961945 178.45525,104.296924 183.330118,104.319986 L183.330118,104.0617 C183.330118,103.019333 183.041596,101.144455 180.461055,101.144455 C179.288502,101.144455 178.065169,101.508822 177.176521,102.083047 L176.654873,100.570231 C177.698169,99.8945367 179.210024,99.4517612 180.800357,99.4517612 C184.659628,99.4517612 185.596747,102.083047 185.596747,104.608251 L185.596747,109.321965 C185.596747,110.417373 185.647527,111.482802 185.804483,112.342986 L183.7202,112.342986 Z" id="Fill-14"></path>
                <path d="M189.294214,103.670812 C189.294214,102.185669 189.266516,100.910384 189.188038,99.7365673 L191.196152,99.7365673 L191.27463,102.213343 L191.380806,102.213343 C191.950925,100.518343 193.335831,99.4529143 194.870768,99.4529143 C195.1339,99.4529143 195.316246,99.4759755 195.523982,99.5313224 L195.523982,101.689853 C195.288548,101.639118 195.055422,101.613751 194.74151,101.613751 C193.123479,101.613751 191.978623,102.838302 191.667019,104.556363 C191.613931,104.869996 191.560843,105.232057 191.560843,105.624098 L191.560843,112.344139 L189.294214,112.344139 L189.294214,103.670812 Z" id="Fill-15"></path>
                <path d="M206.157287,104.869535 C206.157287,104.583576 206.129589,104.191535 206.051111,103.903269 C205.714118,102.448106 204.463086,101.248922 202.741187,101.248922 C200.37069,101.248922 198.960394,103.333657 198.960394,106.119453 C198.960394,108.672331 200.211426,110.782433 202.690407,110.782433 C204.227652,110.782433 205.63564,109.765433 206.051111,108.047371 C206.129589,107.733739 206.157287,107.422412 206.157287,107.055739 L206.157287,104.869535 Z M208.451614,93.8508816 L208.451614,109.087433 C208.451614,110.208208 208.477004,111.483494 208.555482,112.343678 L206.496589,112.343678 L206.390413,110.155167 L206.339633,110.155167 C205.63564,111.561902 204.098394,112.629637 202.037193,112.629637 C198.988092,112.629637 196.642986,110.051392 196.642986,106.223229 C196.615287,102.030698 199.223526,99.4524531 202.298017,99.4524531 C204.227652,99.4524531 205.531772,100.363371 206.106508,101.378065 L206.157287,101.378065 L206.157287,93.8508816 L208.451614,93.8508816 Z" id="Fill-16"></path>
                <path d="M212.254565,99.7374898 L214.548892,99.7374898 L214.548892,112.345061 L212.254565,112.345061 L212.254565,99.7374898 Z M214.809716,96.1975918 C214.835106,96.9770612 214.26037,97.6020204 213.348641,97.6020204 C212.538471,97.6020204 211.968352,96.9770612 211.968352,96.1975918 C211.968352,95.3881429 212.566169,94.7631837 213.399421,94.7631837 C214.26037,94.7631837 214.809716,95.3881429 214.809716,96.1975918 L214.809716,96.1975918 Z" id="Fill-17"></path>
                <path d="M219.757753,106.06572 C219.757753,108.828455 221.348087,110.910884 223.589326,110.910884 C225.779785,110.910884 227.423206,108.853822 227.423206,106.014986 C227.423206,103.879516 226.352213,101.169822 223.644722,101.169822 C220.930307,101.169822 219.757753,103.669659 219.757753,106.06572 M229.768313,105.936578 C229.768313,110.597251 226.536867,112.631251 223.487766,112.631251 C220.071665,112.631251 217.438036,110.129108 217.438036,106.144129 C217.438036,101.926231 220.200923,99.4517612 223.695502,99.4517612 C227.319338,99.4517612 229.768313,102.083047 229.768313,105.936578" id="Fill-18"></path>
                <polygon id="Fill-19" points="231.927843 106.143898 238.365346 106.143898 238.365346 104.451204 231.927843 104.451204"></polygon>
                <path d="M243.394862,103.462569 C243.891119,103.591712 244.516635,103.644753 245.271409,103.644753 C248.008906,103.644753 249.677717,102.316427 249.677717,99.8926918 C249.677717,97.5773449 248.034296,96.4565694 245.532233,96.4565694 C244.539717,96.4565694 243.784943,96.5349776 243.394862,96.6387531 L243.394862,103.462569 Z M241.125925,94.9991 C242.222308,94.8146102 243.655686,94.6601 245.481453,94.6601 C247.722692,94.6601 249.363805,95.1789776 250.407101,96.1175694 C251.371918,96.9523857 251.944346,98.2276714 251.944346,99.7912224 C251.944346,101.377835 251.475786,102.630059 250.589447,103.540978 C249.391503,104.816263 247.436478,105.468896 245.220629,105.468896 C244.539717,105.468896 243.914201,105.441222 243.394862,105.309773 L243.394862,112.343447 L241.125925,112.343447 L241.125925,94.9991 Z" id="Fill-20"></path>
                <path d="M265.080176,108.904557 C265.080176,110.207516 265.105566,111.353659 265.184044,112.342986 L263.150541,112.342986 L263.018975,110.285924 L262.968195,110.285924 C262.368069,111.302924 261.03856,112.631251 258.797321,112.631251 C256.816906,112.631251 254.444101,111.538149 254.444101,107.108088 L254.444101,99.7377204 L256.738428,99.7377204 L256.738428,106.718353 C256.738428,109.114414 257.467811,110.7287 259.552094,110.7287 C261.091648,110.7287 262.160333,109.660965 262.578113,108.643965 C262.707371,108.307271 262.785849,107.889863 262.785849,107.472455 L262.785849,99.7377204 L265.080176,99.7377204 L265.080176,108.904557 Z" id="Fill-21"></path>
                <polygon id="Fill-22" points="268.881742 112.342755 271.176069 112.342755 271.176069 93.8499592 268.881742 93.8499592"></polygon>
                <path d="M275.028415,103.148706 C275.028415,101.848053 275.000717,100.780318 274.922239,99.7356449 L276.930352,99.7356449 L277.036528,101.769645 L277.115006,101.769645 C277.816692,100.570461 278.991553,99.4519918 281.075836,99.4519918 C282.795428,99.4519918 284.099547,100.494359 284.646585,101.977196 L284.699673,101.977196 C285.089755,101.273829 285.586013,100.727278 286.105352,100.337543 C286.862434,99.7633184 287.695686,99.4519918 288.895937,99.4519918 C290.564748,99.4519918 293.041421,100.545094 293.041421,104.919808 L293.041421,112.343216 L290.800182,112.343216 L290.800182,105.208073 C290.800182,102.786645 289.911535,101.326869 288.060377,101.326869 C286.758566,101.326869 285.74066,102.290829 285.350579,103.411604 C285.246711,103.722931 285.168233,104.138033 285.168233,104.555441 L285.168233,112.343216 L282.926994,112.343216 L282.926994,104.790665 C282.926994,102.786645 282.040654,101.326869 280.293365,101.326869 C278.859987,101.326869 277.816692,102.473012 277.452,103.619155 C277.322742,103.958155 277.269654,104.34789 277.269654,104.737624 L277.269654,112.343216 L275.028415,112.343216 L275.028415,103.148706 Z" id="Fill-23"></path>
                <path d="M298.167881,106.06572 C298.167881,108.828455 299.760522,110.910884 301.999453,110.910884 C304.189912,110.910884 305.833333,108.853822 305.833333,106.014986 C305.833333,103.879516 304.764648,101.169822 302.052541,101.169822 C299.342742,101.169822 298.167881,103.669659 298.167881,106.06572 M308.17844,105.936578 C308.17844,110.597251 304.946994,112.631251 301.897893,112.631251 C298.481792,112.631251 295.848164,110.129108 295.848164,106.144129 C295.848164,101.926231 298.61105,99.4517612 302.105629,99.4517612 C305.729465,99.4517612 308.17844,102.083047 308.17844,105.936578" id="Fill-24"></path>
                <path d="M311.070585,103.148706 C311.070585,101.848053 311.042887,100.780318 310.964409,99.7356449 L313.00022,99.7356449 L313.129478,101.82038 L313.180258,101.82038 C313.805774,100.623502 315.266849,99.4519918 317.351132,99.4519918 C319.098421,99.4519918 321.810528,100.494359 321.810528,104.816033 L321.810528,112.343216 L319.516201,112.343216 L319.516201,105.076624 C319.516201,103.044931 318.759119,101.352237 316.596358,101.352237 C315.084503,101.352237 313.91195,102.419971 313.51956,103.697563 C313.415692,103.981216 313.364912,104.373257 313.364912,104.762992 L313.364912,112.343216 L311.070585,112.343216 L311.070585,103.148706 Z" id="Fill-25"></path>
                <path d="M332.178855,105.91121 C329.676792,105.858169 326.835428,106.300945 326.835428,108.750047 C326.835428,110.232884 327.825635,110.936251 328.998189,110.936251 C330.64161,110.936251 331.682597,109.893884 332.049597,108.828455 C332.128075,108.593231 332.178855,108.332639 332.178855,108.097414 L332.178855,105.91121 Z M332.518157,112.342986 L332.335811,110.754067 L332.257333,110.754067 C331.55334,111.7457 330.19844,112.631251 328.398063,112.631251 C325.842912,112.631251 324.541101,110.832476 324.541101,109.010639 C324.541101,105.961945 327.253208,104.296924 332.128075,104.319986 L332.128075,104.0617 C332.128075,103.019333 331.839553,101.144455 329.259013,101.144455 C328.086459,101.144455 326.863126,101.508822 325.974478,102.083047 L325.45283,100.570231 C326.496126,99.8945367 328.007981,99.4517612 329.598314,99.4517612 C333.457585,99.4517612 334.394704,102.083047 334.394704,104.608251 L334.394704,109.321965 C334.394704,110.417373 334.445484,111.482802 334.60244,112.342986 L332.518157,112.342986 Z" id="Fill-26"></path>
                <path d="M338.092403,103.670812 C338.092403,102.185669 338.064704,100.910384 337.986226,99.7365673 L339.99434,99.7365673 L340.072818,102.213343 L340.178994,102.213343 C340.749113,100.518343 342.134019,99.4529143 343.668956,99.4529143 C343.932088,99.4529143 344.114434,99.4759755 344.32217,99.5313224 L344.32217,101.689853 C344.086736,101.639118 343.85361,101.613751 343.539698,101.613751 C341.921667,101.613751 340.776811,102.838302 340.465208,104.556363 C340.412119,104.869996 340.359031,105.232057 340.359031,105.624098 L340.359031,112.344139 L338.092403,112.344139 L338.092403,103.670812 Z" id="Fill-27"></path>
                <path d="M354.355811,104.815571 C354.383509,103.358102 353.757994,101.091184 351.175145,101.091184 C348.857736,101.091184 347.83983,103.226653 347.657484,104.815571 L354.355811,104.815571 Z M347.629786,106.457531 C347.682874,109.556959 349.665597,110.832245 351.957616,110.832245 C353.601038,110.832245 354.591245,110.546286 355.452195,110.181918 L355.842277,111.821571 C355.034415,112.185939 353.654126,112.603347 351.646013,112.603347 C347.761352,112.603347 345.441635,110.050469 345.441635,106.24998 C345.441635,102.447184 347.682874,99.4515306 351.359799,99.4515306 C355.477585,99.4515306 356.573969,103.069837 356.573969,105.389796 C356.573969,105.857939 356.518572,106.222306 356.495491,106.457531 L347.629786,106.457531 Z" id="Fill-28"></path>
                <path d="M359.096805,109.999965 C359.773101,110.440435 360.973352,110.910884 362.122824,110.910884 C363.789327,110.910884 364.569491,110.078373 364.569491,109.036006 C364.569491,107.940598 363.920893,107.343312 362.224384,106.718353 C359.957755,105.91121 358.889069,104.661292 358.889069,103.148476 C358.889069,101.119088 360.532491,99.4517612 363.239981,99.4517612 C364.518711,99.4517612 365.640484,99.8138224 366.344478,100.231231 L365.769742,101.898557 C365.275792,101.587231 364.361755,101.169822 363.189201,101.169822 C361.834302,101.169822 361.079528,101.951598 361.079528,102.887884 C361.079528,103.930251 361.834302,104.398394 363.475415,105.023353 C365.668182,105.858169 366.787648,106.953578 366.787648,108.828455 C366.787648,111.042333 365.065748,112.603578 362.067428,112.603578 C360.687138,112.603578 359.410717,112.264578 358.522069,111.7457 L359.096805,109.999965 Z" id="Fill-29"></path>
                <path d="M15.7717673,21.2156347 C14.7861761,21.7091449 12.8103774,22.200349 10.2783082,22.200349 C4.41554088,22.200349 0.0023081761,18.5036347 0.0023081761,11.6867367 C0.0023081761,5.18116531 4.41554088,0.769553061 10.8668931,0.769553061 C13.4566667,0.769553061 15.0931635,1.32763469 15.8040818,1.69430816 L15.1554843,3.88512449 C14.1352704,3.39392041 12.6857358,3.02263469 10.9569119,3.02263469 C6.07973585,3.02263469 2.84136478,6.13820612 2.84136478,11.5944918 C2.84136478,16.6841041 5.77274843,19.9518796 10.8345786,19.9518796 C12.4710755,19.9518796 14.1352704,19.6128796 15.217805,19.0893898 L15.7717673,21.2156347 Z" id="Fill-30"></path>
                <path d="M28.1800604,12.9823163 C28.2123748,11.2550306 27.4714503,8.57070408 24.4154252,8.57070408 C21.6686956,8.57070408 20.4638277,11.1005204 20.2491673,12.9823163 L28.1800604,12.9823163 Z M20.2168528,14.9240714 C20.2791736,18.5931122 22.6242805,20.1059286 25.3410038,20.1059286 C27.2867962,20.1059286 28.4593497,19.7669286 29.4772553,19.3356837 L29.9411987,21.2774388 C28.9833057,21.7086837 27.3468088,22.2021939 24.9716956,22.2021939 C20.3715006,22.2021939 17.6247711,19.1811735 17.6247711,14.6773163 C17.6247711,10.1757653 20.2791736,6.62894898 24.6323937,6.62894898 C29.5072616,6.62894898 30.8044566,10.9160306 30.8044566,13.6603163 C30.8044566,14.2137857 30.744444,14.6450306 30.7121296,14.9240714 L20.2168528,14.9240714 Z" id="Fill-31"></path>
                <path d="M34.1713931,11.0089673 C34.1713931,9.46617143 34.1390786,8.20241633 34.0467516,6.96864082 L36.4541792,6.96864082 L36.608827,9.43619184 L36.6711478,9.43619184 C37.4120723,8.01792653 39.1408962,6.62964082 41.6083365,6.62964082 C43.6764623,6.62964082 46.8871352,7.86341633 46.8871352,12.9830082 L46.8871352,21.8938653 L44.1704119,21.8938653 L44.1704119,13.2897224 C44.1704119,10.8844367 43.2771478,8.88272245 40.7150723,8.88272245 C38.9239277,8.88272245 37.5367138,10.1464776 37.0727704,11.6546816 C36.9481289,11.9936816 36.8858082,12.4572122 36.8858082,12.9207429 L36.8858082,21.8938653 L34.1713931,21.8938653 L34.1713931,11.0089673 Z" id="Fill-32"></path>
                <path d="M54.4514899,2.68294286 L54.4514899,6.97002449 L58.3384585,6.97002449 L58.3384585,9.0363102 L54.4514899,9.0363102 L54.4514899,17.0823714 C54.4514899,18.9318816 54.9754459,19.9811673 56.4873013,19.9811673 C57.1982195,19.9811673 57.7221755,19.8889224 58.0637855,19.7966776 L58.1838107,21.8329837 C57.6598547,22.0474531 56.8266031,22.2019633 55.776383,22.2019633 C54.5115025,22.2019633 53.4935969,21.800698 52.8449994,21.0627388 C52.0740686,20.2602082 51.7970874,18.9318816 51.7970874,17.1769224 L51.7970874,9.0363102 L49.4819868,9.0363102 L49.4819868,6.97002449 L51.7970874,6.97002449 L51.7970874,3.39322857 L54.4514899,2.68294286 Z" id="Fill-33"></path>
                <path d="M61.3954069,11.6260857 C61.3954069,9.86651429 61.3630925,8.3583102 61.2707654,6.97002449 L63.6481868,6.97002449 L63.7405138,9.8988 L63.8628472,9.8988 C64.5437591,7.89477959 66.1779478,6.63102449 67.9990987,6.63102449 C68.3083943,6.63102449 68.5253629,6.66100408 68.7723377,6.72326939 L68.7723377,9.28075918 C68.4930484,9.2208 68.2160673,9.18851429 67.8467591,9.18851429 C65.930973,9.18851429 64.5737654,10.6390653 64.2044572,12.6730653 C64.1421365,13.044351 64.0821239,13.4755959 64.0821239,13.9391265 L64.0821239,21.8929429 L61.3954069,21.8929429 L61.3954069,11.6260857 Z" id="Fill-34"></path>
                <path d="M72.8467302,14.4630776 C72.8467302,17.7308531 74.7302019,20.1984041 77.3846044,20.1984041 C79.9766862,20.1984041 81.9224786,17.7608327 81.9224786,14.4008122 C81.9224786,11.873302 80.6552899,8.66548571 77.4469252,8.66548571 C74.2362522,8.66548571 72.8467302,11.6265469 72.8467302,14.4630776 M84.6992145,14.3062612 C84.6992145,19.8271184 80.8722585,22.2324041 77.2622711,22.2324041 C73.2183465,22.2324041 70.1000006,19.273649 70.1000006,14.5553224 C70.1000006,9.56026122 73.3706862,6.62917959 77.5069377,6.62917959 C81.7978371,6.62917959 84.6992145,9.74475102 84.6992145,14.3062612" id="Fill-35"></path>
                <path d="M112.293229,12.7653102 C112.136273,9.86651429 111.953927,6.38426939 111.983933,3.79218776 L111.891606,3.79218776 C111.180688,6.22975918 110.31743,8.81722857 109.26721,11.6860449 L105.594902,21.7684122 L103.556782,21.7684122 L100.19377,11.8728408 C99.2058704,8.94175918 98.3726189,6.25973878 97.7863421,3.79218776 L97.7240214,3.79218776 C97.6640088,6.38426939 97.509361,9.86651429 97.3247069,12.9820857 L96.7661283,21.8929429 L94.206361,21.8929429 L95.6558956,1.11016735 L99.0812289,1.11016735 L102.631204,11.1625551 C103.49677,13.722351 104.207688,16.0054122 104.731644,18.1616367 L104.823971,18.1616367 C105.347927,16.0653714 106.088852,13.7846163 107.01443,11.1625551 L110.719053,1.11016735 L114.144386,1.11016735 L115.441581,21.8929429 L112.814877,21.8929429 L112.293229,12.7653102 Z" id="Fill-36"></path>
                <path d="M129.794743,0.52395102 L126.030108,4.93556327 L124.084316,4.93556327 L126.801039,0.52395102 L129.794743,0.52395102 Z M129.146146,12.9816245 C129.176152,11.2543388 128.437536,8.57231837 125.379203,8.57231837 C122.632473,8.57231837 121.429913,11.1021347 121.215253,12.9816245 L129.146146,12.9816245 Z M121.182938,14.9233796 C121.245259,18.5924204 123.590366,20.1052367 126.307089,20.1052367 C128.250574,20.1052367 129.423127,19.7662367 130.441033,19.3349918 L130.904976,21.2767469 C129.949391,21.7079918 128.312894,22.201502 125.937781,22.201502 C121.337586,22.201502 118.590857,19.1804816 118.590857,14.6766245 C118.590857,10.1773796 121.245259,6.63056327 125.598479,6.63056327 C130.473347,6.63056327 131.770542,10.9153388 131.770542,13.6596245 C131.770542,14.2154 131.708221,14.6466449 131.678215,14.9233796 L121.182938,14.9233796 Z" id="Fill-37"></path>
                <path d="M145.320921,13.0434286 C145.320921,12.7044286 145.290914,12.240898 145.198587,11.901898 C144.796965,10.1769184 143.315116,8.75634694 141.276996,8.75634694 C138.470254,8.75634694 136.801443,11.223898 136.801443,14.5239592 C136.801443,17.5472857 138.283292,20.0448163 141.216984,20.0448163 C143.038135,20.0448163 144.70233,18.8410204 145.198587,16.8047143 C145.290914,16.4357347 145.320921,16.0667551 145.320921,15.6332041 L145.320921,13.0434286 Z M148.037644,0 L148.037644,18.0384898 C148.037644,19.3645102 148.06765,20.8773265 148.159977,21.8943265 L145.722543,21.8943265 L145.60021,19.3022449 L145.537889,19.3022449 C144.70233,20.9695714 142.883487,22.2333265 140.446053,22.2333265 C136.833757,22.2333265 134.054713,19.1800204 134.054713,14.6461837 C134.027015,9.68110204 137.113047,6.63010204 140.75304,6.63010204 C143.038135,6.63010204 144.579996,7.70936735 145.260908,8.91085714 L145.320921,8.91085714 L145.320921,0 L148.037644,0 Z" id="Fill-38"></path>
                <path d="M152.546666,6.96910204 L155.261081,6.96910204 L155.261081,21.8943265 L152.546666,21.8943265 L152.546666,6.96910204 Z M155.570377,2.77657143 C155.600383,3.70132653 154.921779,4.43928571 153.841553,4.43928571 C152.885968,4.43928571 152.205056,3.70132653 152.205056,2.77657143 C152.205056,1.81953061 152.913666,1.07926531 153.903874,1.07926531 C154.921779,1.07926531 155.570377,1.81953061 155.570377,2.77657143 L155.570377,2.77657143 Z" id="Fill-39"></path>
                <path d="M170.415873,21.3376286 C169.704955,21.7089143 168.130779,22.2001184 166.124974,22.2001184 C161.619414,22.2001184 158.685722,19.1491184 158.685722,14.585302 C158.685722,9.99150612 161.836382,6.66146531 166.71125,6.66146531 C168.315433,6.66146531 169.737269,7.06273061 170.475886,7.4317102 L169.859603,9.52797551 C169.213313,9.1566898 168.193099,8.8176898 166.71125,8.8176898 C163.285917,8.8176898 161.432452,11.3475061 161.432452,14.4630776 C161.432452,17.9153429 163.655225,20.0438939 166.618923,20.0438939 C168.163093,20.0438939 169.180999,19.6426286 169.95193,19.3036286 L170.415873,21.3376286 Z" id="Fill-40"></path>
                <path d="M175.076773,14.4630776 C175.076773,17.7308531 176.960245,20.1984041 179.614647,20.1984041 C182.206729,20.1984041 184.152521,17.7608327 184.152521,14.4008122 C184.152521,11.873302 182.885333,8.66548571 179.676968,8.66548571 C176.466295,8.66548571 175.076773,11.6265469 175.076773,14.4630776 M186.929257,14.3062612 C186.929257,19.8271184 183.102301,22.2324041 179.492314,22.2324041 C175.448389,22.2324041 172.330043,19.273649 172.330043,14.5553224 C172.330043,9.56026122 175.600729,6.62917959 179.736981,6.62917959 C184.02788,6.62917959 186.929257,9.74475102 186.929257,14.3062612" id="Fill-41"></path>
                <polygon id="Fill-42" points="207.762855 12.150498 199.677314 12.150498 199.677314 19.6430898 208.688433 19.6430898 208.688433 21.8938653 196.992905 21.8938653 196.992905 1.10878367 208.226798 1.10878367 208.226798 3.36186531 199.677314 3.36186531 199.677314 9.92739592 207.762855 9.92739592"></polygon>
                <path d="M211.715606,19.1177551 C212.518852,19.6412449 213.93838,20.1993265 215.295587,20.1993265 C217.271386,20.1993265 218.196965,19.21 218.196965,17.9785306 C218.196965,16.6824898 217.426034,15.9722041 215.420229,15.2342449 C212.733512,14.2772041 211.468631,12.7966735 211.468631,11.0094286 C211.468631,8.60414286 213.412116,6.63010204 216.622789,6.63010204 C218.134644,6.63010204 219.461845,7.06134694 220.295097,7.55485714 L219.616493,9.52889796 C219.030216,9.15761224 217.94999,8.66410204 216.562776,8.66410204 C214.956286,8.66410204 214.063021,9.58885714 214.063021,10.698102 C214.063021,11.9341837 214.956286,12.4899592 216.902078,13.2279184 C219.49416,14.2149388 220.821361,15.5086735 220.821361,17.7317755 C220.821361,20.3515306 218.783242,22.2010408 215.233267,22.2010408 C213.599078,22.2010408 212.087223,21.8020816 211.037003,21.1840408 L211.715606,19.1177551 Z" id="Fill-43"></path>
                <path d="M226.99527,15.8195388 C226.99527,16.218498 227.055283,16.5897837 227.117604,16.9287837 C227.611553,18.8105796 229.245742,20.1066204 231.191535,20.1066204 C234.060597,20.1066204 235.729409,17.7612939 235.729409,14.3390082 C235.729409,11.3479673 234.155233,8.78817143 231.28617,8.78817143 C229.432704,8.78817143 227.703881,10.1141918 227.177616,12.150498 C227.085289,12.489498 226.99527,12.8907633 226.99527,13.2597429 L226.99527,15.8195388 Z M224.308553,11.8414776 C224.308553,9.92739592 224.246233,8.38690612 224.18622,6.96864082 L226.623654,6.96864082 L226.745987,9.52843673 L226.810616,9.52843673 C227.920849,7.70890612 229.679679,6.62964082 232.117113,6.62964082 C235.729409,6.62964082 238.443824,9.68294694 238.443824,14.2144776 C238.443824,19.5808245 235.173138,22.2328653 231.65317,22.2328653 C229.679679,22.2328653 227.950855,21.3703755 227.055283,19.8875388 L226.99527,19.8875388 L226.99527,28.0004776 L224.308553,28.0004776 L224.308553,11.8414776 Z" id="Fill-44"></path>
                <path d="M251.346528,12.9823163 C251.378843,11.2550306 250.637918,8.57070408 247.581893,8.57070408 C244.835164,8.57070408 243.630296,11.1005204 243.415635,12.9823163 L251.346528,12.9823163 Z M243.383321,14.9240714 C243.445642,18.5931122 245.790748,20.1059286 248.50978,20.1059286 C250.453264,20.1059286 251.625818,19.7669286 252.643723,19.3356837 L253.107667,21.2774388 C252.149774,21.7086837 250.513277,22.2021939 248.138164,22.2021939 C243.537969,22.2021939 240.791239,19.1811735 240.791239,14.6773163 C240.791239,10.1757653 243.445642,6.62894898 247.798862,6.62894898 C252.67373,6.62894898 253.970925,10.9160306 253.970925,13.6603163 C253.970925,14.2137857 253.910912,14.6450306 253.878597,14.9240714 L243.383321,14.9240714 Z" id="Fill-45"></path>
                <path d="M267.983862,21.3376286 C267.272943,21.7089143 265.698767,22.2001184 263.692962,22.2001184 C259.187403,22.2001184 256.253711,19.1491184 256.253711,14.585302 C256.253711,9.99150612 259.404371,6.66146531 264.279239,6.66146531 C265.883421,6.66146531 267.305258,7.06273061 268.043874,7.4317102 L267.427591,9.52797551 C266.781302,9.1566898 265.761088,8.8176898 264.279239,8.8176898 C260.853906,8.8176898 259.00044,11.3475061 259.00044,14.4630776 C259.00044,17.9153429 261.223214,20.0438939 264.186912,20.0438939 C265.731082,20.0438939 266.748987,19.6426286 267.519918,19.3036286 L267.983862,21.3376286 Z" id="Fill-46"></path>
                <path d="M271.164528,6.96910204 L273.878943,6.96910204 L273.878943,21.8943265 L271.164528,21.8943265 L271.164528,6.96910204 Z M274.190547,2.77657143 C274.218245,3.70132653 273.539642,4.43928571 272.461723,4.43928571 C271.50383,4.43928571 270.825226,3.70132653 270.825226,2.77657143 C270.825226,1.81953061 271.533836,1.07926531 272.521736,1.07926531 C273.539642,1.07926531 274.190547,1.81953061 274.190547,2.77657143 L274.190547,2.77657143 Z" id="Fill-47"></path>
                <path d="M286.257692,14.2776653 C283.296302,14.2154 279.930981,14.7388898 279.930981,17.6399918 C279.930981,19.394951 281.103535,20.2274612 282.493057,20.2274612 C284.436541,20.2274612 285.671415,18.9959918 286.103044,17.7322367 C286.197679,17.4531959 286.257692,17.1441755 286.257692,16.8674408 L286.257692,14.2776653 Z M286.659314,21.8947878 L286.442346,20.0129918 L286.350019,20.0129918 C285.516767,21.184502 283.910277,22.2337878 281.782138,22.2337878 C278.756119,22.2337878 277.214258,20.1052367 277.214258,17.9467061 C277.214258,14.3376245 280.424931,12.3658898 286.197679,12.3958694 L286.197679,12.086849 C286.197679,10.8553796 285.856069,8.63458367 282.800044,8.63458367 C281.41283,8.63458367 279.960987,9.06582857 278.913075,9.74613469 L278.294484,7.95427755 C279.529358,7.15405306 281.320503,6.63056327 283.203975,6.63056327 C287.771855,6.63056327 288.882088,9.74613469 288.882088,12.7348694 L288.882088,18.3179918 C288.882088,19.6117265 288.944409,20.8754816 289.129063,21.8947878 L286.659314,21.8947878 Z" id="Fill-48"></path>
                <polygon id="Fill-49" points="293.265314 21.8943265 295.97973 21.8943265 295.97973 0 293.265314 0"></polygon>
                <path d="M300.549918,6.96910204 L303.264333,6.96910204 L303.264333,21.8943265 L300.549918,21.8943265 L300.549918,6.96910204 Z M303.573629,2.77657143 C303.603635,3.70132653 302.925031,4.43928571 301.847113,4.43928571 C300.88922,4.43928571 300.210616,3.70132653 300.210616,2.77657143 C300.210616,1.81953061 300.919226,1.07926531 301.907126,1.07926531 C302.925031,1.07926531 303.573629,1.81953061 303.573629,2.77657143 L303.573629,2.77657143 Z" id="Fill-50"></path>
                <path d="M306.075692,20.320398 L312.834031,11.5340714 C313.480321,10.7315408 314.098912,10.0212551 314.777516,9.22103061 L314.777516,9.15645918 L306.691975,9.15645918 L306.691975,6.9702551 L318.080516,6.9702551 L318.050509,8.6652551 L311.384497,17.3293571 C310.765906,18.1618673 310.147314,18.9021327 309.468711,19.6746837 L309.468711,19.7346429 L318.202849,19.7346429 L318.202849,21.8931735 L306.075692,21.8931735 L306.075692,20.320398 Z" id="Fill-51"></path>
                <path d="M328.852774,14.2776653 C325.891384,14.2154 322.526063,14.7388898 322.526063,17.6399918 C322.526063,19.394951 323.698616,20.2274612 325.088138,20.2274612 C327.031623,20.2274612 328.266497,18.9959918 328.698126,17.7322367 C328.792761,17.4531959 328.852774,17.1441755 328.852774,16.8674408 L328.852774,14.2776653 Z M329.254396,21.8947878 L329.037428,20.0129918 L328.945101,20.0129918 C328.111849,21.184502 326.505358,22.2337878 324.37722,22.2337878 C321.351201,22.2337878 319.80934,20.1052367 319.80934,17.9467061 C319.80934,14.3376245 323.020013,12.3658898 328.792761,12.3958694 L328.792761,12.086849 C328.792761,10.8553796 328.451151,8.63458367 325.395126,8.63458367 C324.007912,8.63458367 322.556069,9.06582857 321.508157,9.74613469 L320.889566,7.95427755 C322.12444,7.15405306 323.915585,6.63056327 325.799057,6.63056327 C330.366937,6.63056327 331.47717,9.74613469 331.47717,12.7348694 L331.47717,18.3179918 C331.47717,19.6117265 331.539491,20.8754816 331.724145,21.8947878 L329.254396,21.8947878 Z" id="Fill-52"></path>
                <path d="M346.046377,13.0434286 C346.046377,12.7044286 346.016371,12.240898 345.924044,11.901898 C345.522421,10.1769184 344.042881,8.75634694 342.002453,8.75634694 C339.195711,8.75634694 337.526899,11.223898 337.526899,14.5239592 C337.526899,17.5472857 339.008748,20.0448163 341.94244,20.0448163 C343.763591,20.0448163 345.427786,18.8410204 345.924044,16.8047143 C346.016371,16.4357347 346.046377,16.0667551 346.046377,15.6332041 L346.046377,13.0434286 Z M348.763101,0 L348.763101,18.0384898 C348.763101,19.3645102 348.793107,20.8773265 348.885434,21.8943265 L346.448,21.8943265 L346.325667,19.3022449 L346.263346,19.3022449 C345.427786,20.9695714 343.608943,22.2333265 341.171509,22.2333265 C337.559214,22.2333265 334.78017,19.1800204 334.78017,14.6461837 C334.752472,9.68110204 337.838503,6.63010204 341.478497,6.63010204 C343.763591,6.63010204 345.305453,7.70936735 345.986365,8.91085714 L346.046377,8.91085714 L346.046377,0 L348.763101,0 Z" id="Fill-53"></path>
                <path d="M354.935164,14.4630776 C354.935164,17.7308531 356.818635,20.1984041 359.473038,20.1984041 C362.065119,20.1984041 364.010912,17.7608327 364.010912,14.4008122 C364.010912,11.873302 362.743723,8.66548571 359.535358,8.66548571 C356.324686,8.66548571 354.935164,11.6265469 354.935164,14.4630776 M366.787648,14.3062612 C366.787648,19.8271184 362.960692,22.2324041 359.350704,22.2324041 C355.30678,22.2324041 352.188434,19.273649 352.188434,14.5553224 C352.188434,9.56026122 355.459119,6.62917959 359.595371,6.62917959 C363.88627,6.62917959 366.787648,9.74475102 366.787648,14.3062612" id="Fill-54"></path>
                <polygon id="Fill-55" points="0.00161572327 87.2083265 366.786955 87.2083265 366.786955 84.5355306 0.00161572327 84.5355306"></polygon>
                <path d="M23.4972327,66.4672918 L23.2733396,72.5646796 L0,72.5646796 C0.226201258,67.5096592 0.334685535,61.1609041 0.334685535,53.5114959 C0.334685535,46.4985776 0.226201258,40.7079041 0,36.1394755 L7.8708805,36.1394755 C7.64698742,40.3712102 7.53619497,46.1641898 7.53619497,53.5114959 C7.53619497,59.1269041 7.41155346,63.5846388 7.16919497,66.8847 C12.3233522,66.8847 17.7660314,66.7463327 23.4972327,66.4672918" id="Fill-56"></path>
                <path d="M58.1069484,36.1383224 C57.9407597,42.4063633 57.8553572,48.672098 57.8553572,54.9378327 C57.8553572,67.3263224 52.7773698,73.5159551 42.6237031,73.5159551 C37.6011119,73.5159551 33.8203195,72.1438122 31.2813258,69.4018327 C28.7423321,66.6621592 27.4728352,61.7385878 27.4728352,54.6311184 C27.4728352,48.3653837 27.3897409,42.1988122 27.221244,36.1383224 L35.1452126,36.1383224 C34.9028541,42.4432612 34.7828289,48.5222 34.7828289,54.379751 C34.7828289,59.5085673 35.4337346,63.0254041 36.7424704,64.925649 C38.0488981,66.8282 40.0639358,67.7806286 42.7922,67.7806286 C45.6474138,67.7806286 47.7109233,66.8351184 48.9804201,64.9417918 C50.249917,63.0484653 50.8823572,59.5085673 50.8823572,54.3244041 C50.8823572,48.6352 50.7623321,42.5724041 50.5199736,36.1383224 L58.1069484,36.1383224 Z" id="Fill-57"></path>
                <path d="M95.6051157,72.565602 L88.6875119,72.565602 C88.6875119,71.8022755 86.1208201,67.7642551 80.9874365,60.4492347 C75.6116943,52.7490918 72.5464365,47.4772959 71.8032038,44.6430714 L71.3531094,44.6430714 C71.8216692,48.7272143 72.0524868,52.4216224 72.0524868,55.7239898 C72.0524868,60.3293163 72.1840528,65.9447245 72.4471849,72.565602 L65.5572792,72.565602 C65.8388767,66.7841531 65.9773673,60.4330918 65.9773673,53.5101122 C65.9773673,46.7047449 65.8388767,40.9117653 65.5572792,36.1380918 L73.8736377,36.1380918 C73.8736377,37.1251122 76.1795057,41.0708878 80.7912415,47.9731122 C85.6984239,55.3042755 88.5213233,60.2739694 89.2483987,62.8845 L89.6684868,62.8845 C89.2207006,58.7265612 88.9968075,54.9952551 88.9968075,51.6928878 C88.9968075,46.6378673 88.8652415,41.4537041 88.6044176,36.1380918 L95.6051157,36.1380918 C95.3442918,40.7641735 95.2127258,46.5525408 95.2127258,53.5101122 C95.2127258,60.5253367 95.3442918,66.876398 95.6051157,72.565602" id="Fill-58"></path>
                <path d="M132.513313,71.615249 C128.070074,72.7521673 124.353911,73.3217796 121.369439,73.3217796 C114.943477,73.3217796 110.08015,71.5645143 106.763301,68.0453714 C103.451068,64.5308408 101.793797,60.2645143 101.793797,55.2463918 C101.793797,49.9699837 103.601099,45.3808 107.213395,41.4788408 C110.825691,37.5838 115.834433,35.6328204 122.237313,35.6328204 C125.242558,35.6328204 127.892345,35.9026367 130.191288,36.4445755 L129.265709,43.0470041 C126.334326,42.2836776 123.703005,41.9031673 121.369439,41.9031673 C117.427074,41.9031673 114.488766,43.1092694 112.54759,45.5237796 C110.606414,47.9405959 109.634672,50.8924327 109.634672,54.3792898 C109.634672,57.942249 110.721823,61.0485959 112.898433,63.6960245 C115.072735,66.3457592 118.073364,67.6694735 121.900319,67.6694735 C122.964389,67.6694735 124.196955,67.5564735 125.598018,67.3327796 C125.31642,65.2641878 125.175621,63.2301878 125.175621,61.2330857 C125.175621,59.2198408 124.981735,56.9529224 124.587036,54.4346367 L132.513313,54.4346367 C132.36559,57.3057592 132.28942,60.1999429 132.28942,63.1102694 C132.28942,65.2157592 132.36559,68.0522898 132.513313,71.615249" id="Fill-59"></path>
                <path d="M167.265905,44.3638 C167.265905,43.0193306 166.882748,41.9677388 166.118742,41.1998 C165.352427,40.4364735 164.364528,40.0536571 163.150427,40.0536571 C161.973257,40.0536571 160.980742,40.3949633 160.165955,41.0752694 C159.353477,41.7578816 158.949547,42.6272898 158.949547,43.6927184 C158.949547,45.9112082 160.583735,47.7561061 163.849804,49.2297184 C166.125666,48.168902 167.265905,46.5453918 167.265905,44.3638 M171.720685,63.1102694 L171.720685,62.688249 C170.596603,61.4198816 169.110138,59.8978408 167.252056,58.112902 C165.393974,56.3325755 163.411251,54.948902 161.301578,53.9595755 C158.146301,55.3962898 156.569817,57.9768408 156.569817,61.7104531 C156.569817,63.6314531 157.137628,65.1811673 158.275559,66.3549837 C159.452729,67.5864531 161.059219,68.1998816 163.092723,68.1998816 C166.007949,68.1998816 168.881628,66.5025755 171.720685,63.1102694 M186.167559,72.5653714 L177.878899,72.5653714 C177.878899,72.0257388 177.449578,71.013351 176.590936,69.5282082 C175.729987,68.0453714 174.975213,66.9614939 174.324308,66.2696571 L173.904219,66.2696571 C170.356553,71.0087388 165.96871,73.3771265 160.740691,73.3771265 C157.269194,73.3771265 154.520157,72.5008 152.495886,70.7481469 C150.469308,68.9931878 149.458326,66.6155755 149.458326,63.6130041 C149.458326,61.2077184 150.139238,58.9707796 151.501062,56.9091061 C152.860578,54.8497388 154.840993,53.2700449 157.435383,52.1700245 L157.435383,51.7779837 C154.132383,49.259698 152.479729,46.6284122 152.479729,43.8887388 C152.479729,41.2390041 153.548414,39.184249 155.688094,37.7175551 C157.823157,36.2554735 160.302138,35.5221265 163.122729,35.5221265 C165.809446,35.5221265 168.133779,36.1978204 170.093421,37.5515143 C172.053062,38.902902 173.034037,40.8077592 173.034037,43.2730041 C173.034037,46.6860653 171.20827,49.2204939 167.547503,50.880902 L167.547503,51.3006163 C169.244012,52.2161469 171.616817,54.1855755 174.658993,57.2065959 L175.081389,57.2065959 C175.845396,55.9543714 176.228553,53.9688 176.228553,51.2475755 L183.254641,51.2475755 C183.254641,52.010902 182.666056,53.4568408 181.491194,55.5830857 C180.316333,57.7093306 179.233798,59.2659633 178.243591,60.2552898 L178.243591,60.6473306 C179.736981,62.0263918 181.431182,64.1457184 183.323886,66.9960857 C185.218899,69.8510653 186.167559,71.7074939 186.167559,72.5653714" id="Fill-60"></path>
                <path d="M232.682616,72.565602 L224.755416,72.565602 C224.942379,66.3944184 225.037014,61.039602 225.037014,56.5080714 L210.922517,56.5080714 C210.922517,60.5714592 211.017152,65.9262755 211.204114,72.565602 L203.277838,72.565602 C203.520196,66.4105612 203.64253,60.0595 203.64253,53.5101122 C203.64253,46.8938469 203.520196,41.0985612 203.277838,36.1380918 L211.204114,36.1380918 C210.977913,41.377602 210.864813,46.2273776 210.864813,50.6851122 L225.09241,50.6851122 C225.09241,46.7508673 224.981618,41.9010918 224.755416,36.1380918 L232.682616,36.1380918 C232.419484,40.8771735 232.292535,46.6655408 232.292535,53.5101122 C232.292535,60.6567857 232.419484,67.0055408 232.682616,72.565602" id="Fill-61"></path>
                <path d="M264.803195,66.4098694 L264.576994,72.5649102 L240.749692,72.5649102 C240.987434,66.9310531 241.109767,60.5799918 241.109767,53.5117265 C241.109767,46.722502 240.987434,40.9318286 240.749692,36.1374 L263.485226,36.1374 L263.175931,42.2624612 C257.578604,41.9672776 252.500616,41.8150735 247.944277,41.8150735 C248.128931,44.4094612 248.223566,47.4696857 248.223566,50.9957469 C252.122075,50.9957469 256.297566,50.8919714 260.740805,50.6844204 L260.740805,56.5327469 C256.371428,56.3482571 252.200553,56.2537061 248.223566,56.2537061 C248.223566,60.0403592 248.295119,63.5848694 248.445151,66.8849306 C253.562377,66.8849306 259.014289,66.7281143 264.803195,66.4098694" id="Fill-62"></path>
                <path d="M289.835365,56.7573633 C286.643157,47.1339143 285.048208,41.9289959 285.048208,41.1472204 L284.600421,41.1472204 C284.600421,41.873649 282.945459,47.0762612 279.644767,56.7573633 L289.835365,56.7573633 Z M302.775,72.5658327 L293.812352,72.5658327 C293.812352,71.3343633 292.965252,67.8452 291.266434,62.100649 L278.326799,62.100649 C276.570277,67.7552612 275.695478,71.2398122 275.695478,72.5658327 L267.266019,72.5658327 C267.266019,71.837098 269.442629,65.8711592 273.805082,54.6587918 C278.165226,43.4510367 280.344145,37.2752408 280.344145,36.1383224 L290.931748,36.1383224 C290.931748,37.1991388 292.902931,43.2849959 296.849912,54.3935878 C300.799201,65.5021796 302.775,71.5580571 302.775,72.5658327 L302.775,72.5658327 Z" id="Fill-63"></path>
                <path d="M326.126818,46.8246633 C326.126818,43.1141122 323.737855,41.2576837 318.959931,41.2576837 C317.203409,41.2576837 315.654623,41.3891327 314.311264,41.6497245 C314.514384,44.541602 314.618252,48.3075 314.618252,52.9520306 C315.64539,52.9912347 316.510956,53.0073776 317.224182,53.0073776 C323.160811,53.0073776 326.126818,50.9480102 326.126818,46.8246633 M336.629019,72.565602 L328.33805,72.565602 C326.172981,65.9631735 324.508786,61.8882551 323.354698,60.3385408 C322.198302,58.7911327 320.328679,58.0162755 317.752755,58.0162755 C316.672528,58.0162755 315.636157,58.0255 314.648258,58.0462551 C314.648258,62.8383776 314.731352,67.6789286 314.899849,72.565602 L307.112063,72.565602 C307.354421,66.9317449 307.476755,60.5806837 307.476755,53.5101122 C307.476755,46.7231939 307.354421,40.9302143 307.112063,36.1380918 L311.956925,36.1380918 C312.515503,36.1380918 313.688057,36.1104184 315.469969,36.0527653 C317.256497,35.9974184 318.904535,35.972051 320.41639,35.972051 C328.98434,35.972051 333.268314,38.8985204 333.268314,44.7537653 C333.268314,49.3982959 330.821648,52.6360918 325.930623,54.4648469 L325.930623,54.8822551 C327.816403,55.4057449 329.469057,56.8724388 330.888585,59.2892551 C332.308113,61.7060714 334.219283,66.1315204 336.629019,72.565602" id="Fill-64"></path>
                <path d="M366.787648,36.1383224 L366.591453,42.1549959 C362.859132,41.873649 359.336855,41.7329755 356.033855,41.7329755 C355.999233,45.2590367 355.978459,49.1863633 355.978459,53.5103429 C355.978459,60.2257714 356.082327,66.5768327 356.287755,72.5658327 L348.444572,72.5658327 C348.689239,66.6344857 348.809264,60.2834245 348.809264,53.5103429 C348.809264,49.2601592 348.774642,45.3328327 348.698472,41.7329755 C346.064843,41.7329755 342.452547,41.8828735 337.861585,42.1803633 L338.085478,36.1383224 L366.787648,36.1383224 Z" id="Fill-65"></path>
            </g>
        </g>
    </g>
</svg>