<?xml version="1.0" encoding="UTF-8"?>
<svg width="193px" height="20px" viewBox="0 0 193 20" version="1.1" xmlns="http://www.w3.org/2000/svg" xmlns:xlink="http://www.w3.org/1999/xlink">
    <!-- Generator: Sketch 42 (36781) - http://www.bohemiancoding.com/sketch -->
    <title>LOGO</title>
    <desc>Created with Sketch.</desc>
    <defs></defs>
    <g id="Lung&amp;Heart" stroke="none" stroke-width="1" fill="none" fill-rule="evenodd">
        <g id="Inicio" transform="translate(-57.000000, -30.000000)" fill="#666666">
            <g id="topbar_menu">
                <g id="LOGO" transform="translate(57.000000, 30.000000)">
                    <path d="M12.3568553,16.1370727 L12.2391132,19.2639383 L0,19.2639383 C0.118955975,16.6716201 0.176006289,13.4158482 0.176006289,9.49307483 C0.176006289,5.89670644 0.118955975,2.9271303 0,0.584346415 L4.13918239,0.584346415 C4.02144025,2.75446677 3.9631761,5.72522554 3.9631761,9.49307483 C3.9631761,12.3727713 3.89762893,14.6587891 3.7701761,16.3511282 C6.48067296,16.3511282 9.34289937,16.2801706 12.3568553,16.1370727" id="Fill-56"></path>
                    <path d="M30.557605,0.583755102 C30.4702088,3.79813501 30.4252969,7.01133229 30.4252969,10.2245296 C30.4252969,16.5776013 27.7548566,19.7517718 22.4151899,19.7517718 C19.7738818,19.7517718 17.7856176,19.0481088 16.4503975,17.6419655 C15.1151774,16.2370047 14.4475673,13.7120963 14.4475673,10.0672402 C14.4475673,6.85404291 14.4038692,3.69169859 14.3152591,0.583755102 L18.4823597,0.583755102 C18.3549069,3.81705704 18.2917874,6.93446154 18.2917874,9.93833386 C18.2917874,12.5684961 18.6340893,14.3720021 19.3223346,15.3464867 C20.009366,16.3221538 21.0690453,16.8105788 22.5038,16.8105788 C24.0053157,16.8105788 25.0904855,16.3257017 25.7580956,15.354765 C26.4257057,14.3838284 26.7582969,12.5684961 26.7582969,9.90995081 C26.7582969,6.99241026 26.6951774,3.88328414 26.5677245,0.583755102 L30.557605,0.583755102 Z" id="Fill-57"></path>
                    <path d="M50.2773497,19.2644113 L46.6394818,19.2644113 C46.6394818,18.8729618 45.2896956,16.8021821 42.5901233,13.0508896 C39.7630981,9.10209838 38.1511233,6.39861329 37.7602679,4.94516484 L37.5235698,4.94516484 C37.7699786,7.03959707 37.8913623,8.93416536 37.8913623,10.6276871 C37.8913623,12.989393 37.9605509,15.8690895 38.0989283,19.2644113 L34.4756264,19.2644113 C34.6237145,16.2995657 34.6965447,13.0426112 34.6965447,9.49236525 C34.6965447,6.00243328 34.6237145,3.03167452 34.4756264,0.583636839 L38.8490792,0.583636839 C38.8490792,1.08980115 40.0617019,3.11327577 42.4869472,6.65287807 C45.0675635,10.412449 46.5520855,12.9610099 46.934444,14.2997436 L47.1553623,14.2997436 C46.919878,12.1674673 46.8021358,10.253977 46.8021358,8.56045526 C46.8021358,5.9681371 46.7329472,3.30959184 46.5957836,0.583636839 L50.2773497,0.583636839 C50.1401862,2.95598639 50.0709975,5.92437991 50.0709975,9.49236525 C50.0709975,13.0899163 50.1401862,16.3468707 50.2773497,19.2644113" id="Fill-58"></path>
                    <path d="M69.6868377,18.7770508 C67.3502025,19.3600858 65.3959258,19.6521947 63.8264352,19.6521947 C60.4471145,19.6521947 57.889561,18.751033 56.145278,16.9463443 C54.4034226,15.1440209 53.5318881,12.9561612 53.5318881,10.382765 C53.5318881,7.6769147 54.482322,5.32348718 56.3819761,3.32248247 C58.2816302,1.32502564 60.9156553,0.324523286 64.2828377,0.324523286 C65.8632528,0.324523286 67.2567371,0.462890633 68.4657182,0.740807954 L67.9789698,4.12666876 C66.4373975,3.73521926 65.0536239,3.54008582 63.8264352,3.54008582 C61.7532025,3.54008582 60.2079887,4.15859969 59.1871522,5.39681005 C58.1663157,6.63620304 57.6552906,8.14996546 57.6552906,9.93809733 C57.6552906,11.7652559 58.2270075,13.3582543 59.3716553,14.71591 C60.5150893,16.0747483 62.0930767,16.7535761 64.1056176,16.7535761 C64.6651962,16.7535761 65.3133849,16.6956274 66.0501836,16.5809126 C65.9020956,15.5200963 65.8280516,14.4770194 65.8280516,13.4528645 C65.8280516,12.4204312 65.7260893,11.2579089 65.5185233,9.96648038 L69.6868377,9.96648038 C69.6091522,11.4388509 69.5690956,12.9230476 69.5690956,14.4155228 C69.5690956,15.4952611 69.6091522,16.9498922 69.6868377,18.7770508" id="Fill-59"></path>
                    <path d="M87.9627239,4.80194872 C87.9627239,4.11247724 87.761227,3.57319937 87.3594472,3.17938462 C86.9564535,2.78793511 86.4369314,2.59161905 85.7984535,2.59161905 C85.1793969,2.59161905 84.6574472,2.76664783 84.2289629,3.11552276 C83.8016925,3.46558032 83.5892711,3.91143066 83.5892711,4.45780429 C83.5892711,5.59549137 84.4486673,6.54159288 86.1662459,7.29729147 C87.3630887,6.7532831 87.9627239,5.92071376 87.9627239,4.80194872 M90.3054283,14.4155228 L90.3054283,14.199102 C89.7142899,13.5486572 88.9325792,12.7681235 87.9554409,11.8527703 C86.9783025,10.9397823 85.935617,10.2302062 84.8261704,9.72285924 C83.166856,10.4596358 82.3378057,11.7829953 82.3378057,13.6976682 C82.3378057,14.6827964 82.6364094,15.4775217 83.2348308,16.0794788 C83.8538874,16.7110016 84.6987176,17.0255803 85.7681075,17.0255803 C87.301183,17.0255803 88.8124094,16.1551669 90.3054283,14.4155228 M97.9028308,19.264293 L93.543944,19.264293 C93.543944,18.9875583 93.3181704,18.4683851 92.8666233,17.7067734 C92.4138623,16.9463443 92.0169377,16.3905097 91.6746358,16.0357216 L91.4537176,16.0357216 C89.5880509,18.4660199 87.2805478,19.6805777 84.5312082,19.6805777 C82.7055981,19.6805777 81.2599189,19.2311795 80.1953843,18.332383 C79.1296358,17.432404 78.5979755,16.2131156 78.5979755,14.6733354 C78.5979755,13.4398556 78.9560572,12.2927075 79.6722208,11.235439 C80.3871704,10.1793532 81.4286421,9.36925379 82.7929943,8.80514076 L82.7929943,8.60409419 C81.0559943,7.31266562 80.1868874,5.96328833 80.1868874,4.55832758 C80.1868874,3.19948927 80.7488937,2.14576871 81.8741201,1.393618 C82.9969189,0.643832548 84.3005792,0.267757195 85.7838874,0.267757195 C87.1967931,0.267757195 88.4191264,0.614266876 89.4496736,1.30846886 C90.4802208,2.00148823 90.9961013,2.97833804 90.9961013,4.2425662 C90.9961013,5.992854 90.0359566,7.29256096 88.1108119,8.14405233 L88.1108119,8.35929042 C89.0029818,8.8287933 90.2508057,9.83875667 91.8506421,11.3879979 L92.0727742,11.3879979 C92.4745541,10.7458315 92.6760509,9.72758974 92.6760509,8.33209001 L96.3709692,8.33209001 C96.3709692,8.72353951 96.0614409,9.46504657 95.4435981,10.5554286 C94.8257553,11.6458106 94.256466,12.4440837 93.7357302,12.9514307 L93.7357302,13.1524772 C94.5210824,13.8596881 95.4120384,14.9465222 96.4073843,16.4082491 C97.403944,17.8723412 97.9028308,18.8243558 97.9028308,19.264293" id="Fill-60"></path>
                    <path d="M122.364428,19.2644113 L118.195628,19.2644113 C118.293948,16.0997017 118.343716,13.3536421 118.343716,11.0297802 L110.921106,11.0297802 C110.921106,13.1135688 110.970873,15.8596285 111.069194,19.2644113 L106.900879,19.2644113 C107.028332,16.1079801 107.092665,12.8510256 107.092665,9.49236525 C107.092665,6.09940869 107.028332,3.12746729 106.900879,0.583636839 L111.069194,0.583636839 C110.950238,3.27056515 110.89076,5.75762951 110.89076,8.04364731 L118.372848,8.04364731 C118.372848,6.02608582 118.314584,3.53902145 118.195628,0.583636839 L122.364428,0.583636839 C122.22605,3.01393511 122.159289,5.98232862 122.159289,9.49236525 C122.159289,13.157326 122.22605,16.4130979 122.364428,19.2644113" id="Fill-61"></path>
                    <path d="M139.256176,16.1076253 L139.13722,19.2640565 L126.606786,19.2640565 C126.731811,16.374899 126.796145,13.1179445 126.796145,9.49319309 C126.796145,6.01153951 126.731811,3.04196337 126.606786,0.583282051 L138.563075,0.583282051 L138.400421,3.72433909 C135.456868,3.57296285 132.786428,3.49490947 130.390314,3.49490947 C130.487421,4.82536473 130.537189,6.39471062 130.537189,8.20294715 C132.587358,8.20294715 134.783189,8.14972894 137.119824,8.04329252 L137.119824,11.0424343 C134.822031,10.9478242 132.628629,10.8993365 130.537189,10.8993365 C130.537189,12.8412098 130.574818,14.6589074 130.653717,16.3512465 C133.344792,16.3512465 136.211874,16.2708278 139.256176,16.1076253" id="Fill-62"></path>
                    <path d="M152.420233,11.1576222 C150.741497,6.22252015 149.902736,3.55333124 149.902736,3.15242072 L149.667252,3.15242072 C149.667252,3.52494819 148.796931,6.19295447 147.061145,11.1576222 L152.420233,11.1576222 Z M159.225,19.2645296 L154.511673,19.2645296 C154.511673,18.6330068 154.066195,16.8436923 153.172811,13.8977687 L146.368044,13.8977687 C145.444314,16.7975699 144.98427,18.5845191 144.98427,19.2645296 L140.55134,19.2645296 C140.55134,18.8908195 141.695987,15.8313637 143.990138,10.0814317 C146.283075,4.33386499 147.428937,1.16679016 147.428937,0.583755102 L152.996805,0.583755102 C152.996805,1.12776347 154.033421,4.24871586 156.109082,9.94542962 C158.185956,15.6421434 159.225,18.7477216 159.225,19.2645296 L159.225,19.2645296 Z" id="Fill-63"></path>
                    <path d="M171.505384,6.06392988 C171.505384,4.1610832 170.249063,3.20906855 167.736421,3.20906855 C166.812692,3.20906855 165.998208,3.27647828 165.291755,3.41011512 C165.398572,4.89312925 165.453195,6.82435897 165.453195,9.20616954 C165.993352,9.2262742 166.448541,9.23455259 166.823616,9.23455259 C169.945604,9.23455259 171.505384,8.17846677 171.505384,6.06392988 M177.02834,19.2644113 L172.668239,19.2644113 C171.52966,15.8785505 170.654484,13.7888488 170.047566,12.9941235 C169.439434,12.2005808 168.456226,11.8032182 167.101585,11.8032182 C166.533509,11.8032182 165.988497,11.8079487 165.468975,11.8185924 C165.468975,14.2760911 165.512673,16.7584249 165.601283,19.2644113 L161.505799,19.2644113 C161.633252,16.3752538 161.697585,13.1182993 161.697585,9.49236525 C161.697585,6.0118943 161.633252,3.04113553 161.505799,0.583636839 L164.053642,0.583636839 C164.34739,0.583636839 164.964019,0.569445317 165.901101,0.539879644 C166.84061,0.511496599 167.707289,0.498487703 168.502352,0.498487703 C173.008113,0.498487703 175.260994,1.99924123 175.260994,5.00193093 C175.260994,7.3837415 173.974327,9.04414966 171.402208,9.98197279 L171.402208,10.1960283 C172.393912,10.4644846 173.263019,11.2166353 174.009528,12.4560283 C174.756038,13.6954212 175.761094,15.9648823 177.02834,19.2644113" id="Fill-64"></path>
                    <path d="M192.888327,0.583755102 L192.785151,3.66922868 C190.822377,3.52494819 188.970063,3.45280795 187.233063,3.45280795 C187.214855,5.26104448 187.203931,7.27505808 187.203931,9.49248352 C187.203931,12.936293 187.258553,16.1932475 187.366585,19.2645296 L183.241969,19.2645296 C183.370635,16.2228132 183.433755,12.9658587 183.433755,9.49248352 C183.433755,7.31290215 183.415547,5.29888854 183.375491,3.45280795 C181.990503,3.45280795 180.090849,3.5296787 177.676528,3.68223757 L177.79427,0.583755102 L192.888327,0.583755102 Z" id="Fill-65"></path>
                </g>
            </g>
        </g>
    </g>
</svg>