<?xml version="1.0" encoding="UTF-8"?>
<svg width="235px" height="29px" viewBox="0 0 235 29" version="1.1" xmlns="http://www.w3.org/2000/svg" xmlns:xlink="http://www.w3.org/1999/xlink">
    <!-- Generator: Sketch 42 (36781) - http://www.bohemiancoding.com/sketch -->
    <title>Group 5</title>
    <desc>Created with Sketch.</desc>
    <defs></defs>
    <g id="Lung&amp;Heart" stroke="none" stroke-width="1" fill="none" fill-rule="evenodd">
        <g id="Inicio" transform="translate(-73.000000, -24.000000)">
            <g id="topbar_menu">
                <g id="Group-5" transform="translate(73.000000, 24.000000)">
                    <g id="LOGO" transform="translate(42.000000, 6.000000)" fill="#666666">
                        <path d="M12.3568553,16.1370727 L12.2391132,19.2639383 L0,19.2639383 C0.118955975,16.6716201 0.176006289,13.4158482 0.176006289,9.49307483 C0.176006289,5.89670644 0.118955975,2.9271303 0,0.584346415 L4.13918239,0.584346415 C4.02144025,2.75446677 3.9631761,5.72522554 3.9631761,9.49307483 C3.9631761,12.3727713 3.89762893,14.6587891 3.7701761,16.3511282 C6.48067296,16.3511282 9.34289937,16.2801706 12.3568553,16.1370727" id="Fill-56"></path>
                        <path d="M30.557605,0.583755102 C30.4702088,3.79813501 30.4252969,7.01133229 30.4252969,10.2245296 C30.4252969,16.5776013 27.7548566,19.7517718 22.4151899,19.7517718 C19.7738818,19.7517718 17.7856176,19.0481088 16.4503975,17.6419655 C15.1151774,16.2370047 14.4475673,13.7120963 14.4475673,10.0672402 C14.4475673,6.85404291 14.4038692,3.69169859 14.3152591,0.583755102 L18.4823597,0.583755102 C18.3549069,3.81705704 18.2917874,6.93446154 18.2917874,9.93833386 C18.2917874,12.5684961 18.6340893,14.3720021 19.3223346,15.3464867 C20.009366,16.3221538 21.0690453,16.8105788 22.5038,16.8105788 C24.0053157,16.8105788 25.0904855,16.3257017 25.7580956,15.354765 C26.4257057,14.3838284 26.7582969,12.5684961 26.7582969,9.90995081 C26.7582969,6.99241026 26.6951774,3.88328414 26.5677245,0.583755102 L30.557605,0.583755102 Z" id="Fill-57"></path>
                        <path d="M50.2773497,19.2644113 L46.6394818,19.2644113 C46.6394818,18.8729618 45.2896956,16.8021821 42.5901233,13.0508896 C39.7630981,9.10209838 38.1511233,6.39861329 37.7602679,4.94516484 L37.5235698,4.94516484 C37.7699786,7.03959707 37.8913623,8.93416536 37.8913623,10.6276871 C37.8913623,12.989393 37.9605509,15.8690895 38.0989283,19.2644113 L34.4756264,19.2644113 C34.6237145,16.2995657 34.6965447,13.0426112 34.6965447,9.49236525 C34.6965447,6.00243328 34.6237145,3.03167452 34.4756264,0.583636839 L38.8490792,0.583636839 C38.8490792,1.08980115 40.0617019,3.11327577 42.4869472,6.65287807 C45.0675635,10.412449 46.5520855,12.9610099 46.934444,14.2997436 L47.1553623,14.2997436 C46.919878,12.1674673 46.8021358,10.253977 46.8021358,8.56045526 C46.8021358,5.9681371 46.7329472,3.30959184 46.5957836,0.583636839 L50.2773497,0.583636839 C50.1401862,2.95598639 50.0709975,5.92437991 50.0709975,9.49236525 C50.0709975,13.0899163 50.1401862,16.3468707 50.2773497,19.2644113" id="Fill-58"></path>
                        <path d="M69.6868377,18.7770508 C67.3502025,19.3600858 65.3959258,19.6521947 63.8264352,19.6521947 C60.4471145,19.6521947 57.889561,18.751033 56.145278,16.9463443 C54.4034226,15.1440209 53.5318881,12.9561612 53.5318881,10.382765 C53.5318881,7.6769147 54.482322,5.32348718 56.3819761,3.32248247 C58.2816302,1.32502564 60.9156553,0.324523286 64.2828377,0.324523286 C65.8632528,0.324523286 67.2567371,0.462890633 68.4657182,0.740807954 L67.9789698,4.12666876 C66.4373975,3.73521926 65.0536239,3.54008582 63.8264352,3.54008582 C61.7532025,3.54008582 60.2079887,4.15859969 59.1871522,5.39681005 C58.1663157,6.63620304 57.6552906,8.14996546 57.6552906,9.93809733 C57.6552906,11.7652559 58.2270075,13.3582543 59.3716553,14.71591 C60.5150893,16.0747483 62.0930767,16.7535761 64.1056176,16.7535761 C64.6651962,16.7535761 65.3133849,16.6956274 66.0501836,16.5809126 C65.9020956,15.5200963 65.8280516,14.4770194 65.8280516,13.4528645 C65.8280516,12.4204312 65.7260893,11.2579089 65.5185233,9.96648038 L69.6868377,9.96648038 C69.6091522,11.4388509 69.5690956,12.9230476 69.5690956,14.4155228 C69.5690956,15.4952611 69.6091522,16.9498922 69.6868377,18.7770508" id="Fill-59"></path>
                        <path d="M87.9627239,4.80194872 C87.9627239,4.11247724 87.761227,3.57319937 87.3594472,3.17938462 C86.9564535,2.78793511 86.4369314,2.59161905 85.7984535,2.59161905 C85.1793969,2.59161905 84.6574472,2.76664783 84.2289629,3.11552276 C83.8016925,3.46558032 83.5892711,3.91143066 83.5892711,4.45780429 C83.5892711,5.59549137 84.4486673,6.54159288 86.1662459,7.29729147 C87.3630887,6.7532831 87.9627239,5.92071376 87.9627239,4.80194872 M90.3054283,14.4155228 L90.3054283,14.199102 C89.7142899,13.5486572 88.9325792,12.7681235 87.9554409,11.8527703 C86.9783025,10.9397823 85.935617,10.2302062 84.8261704,9.72285924 C83.166856,10.4596358 82.3378057,11.7829953 82.3378057,13.6976682 C82.3378057,14.6827964 82.6364094,15.4775217 83.2348308,16.0794788 C83.8538874,16.7110016 84.6987176,17.0255803 85.7681075,17.0255803 C87.301183,17.0255803 88.8124094,16.1551669 90.3054283,14.4155228 M97.9028308,19.264293 L93.543944,19.264293 C93.543944,18.9875583 93.3181704,18.4683851 92.8666233,17.7067734 C92.4138623,16.9463443 92.0169377,16.3905097 91.6746358,16.0357216 L91.4537176,16.0357216 C89.5880509,18.4660199 87.2805478,19.6805777 84.5312082,19.6805777 C82.7055981,19.6805777 81.2599189,19.2311795 80.1953843,18.332383 C79.1296358,17.432404 78.5979755,16.2131156 78.5979755,14.6733354 C78.5979755,13.4398556 78.9560572,12.2927075 79.6722208,11.235439 C80.3871704,10.1793532 81.4286421,9.36925379 82.7929943,8.80514076 L82.7929943,8.60409419 C81.0559943,7.31266562 80.1868874,5.96328833 80.1868874,4.55832758 C80.1868874,3.19948927 80.7488937,2.14576871 81.8741201,1.393618 C82.9969189,0.643832548 84.3005792,0.267757195 85.7838874,0.267757195 C87.1967931,0.267757195 88.4191264,0.614266876 89.4496736,1.30846886 C90.4802208,2.00148823 90.9961013,2.97833804 90.9961013,4.2425662 C90.9961013,5.992854 90.0359566,7.29256096 88.1108119,8.14405233 L88.1108119,8.35929042 C89.0029818,8.8287933 90.2508057,9.83875667 91.8506421,11.3879979 L92.0727742,11.3879979 C92.4745541,10.7458315 92.6760509,9.72758974 92.6760509,8.33209001 L96.3709692,8.33209001 C96.3709692,8.72353951 96.0614409,9.46504657 95.4435981,10.5554286 C94.8257553,11.6458106 94.256466,12.4440837 93.7357302,12.9514307 L93.7357302,13.1524772 C94.5210824,13.8596881 95.4120384,14.9465222 96.4073843,16.4082491 C97.403944,17.8723412 97.9028308,18.8243558 97.9028308,19.264293" id="Fill-60"></path>
                        <path d="M122.364428,19.2644113 L118.195628,19.2644113 C118.293948,16.0997017 118.343716,13.3536421 118.343716,11.0297802 L110.921106,11.0297802 C110.921106,13.1135688 110.970873,15.8596285 111.069194,19.2644113 L106.900879,19.2644113 C107.028332,16.1079801 107.092665,12.8510256 107.092665,9.49236525 C107.092665,6.09940869 107.028332,3.12746729 106.900879,0.583636839 L111.069194,0.583636839 C110.950238,3.27056515 110.89076,5.75762951 110.89076,8.04364731 L118.372848,8.04364731 C118.372848,6.02608582 118.314584,3.53902145 118.195628,0.583636839 L122.364428,0.583636839 C122.22605,3.01393511 122.159289,5.98232862 122.159289,9.49236525 C122.159289,13.157326 122.22605,16.4130979 122.364428,19.2644113" id="Fill-61"></path>
                        <path d="M139.256176,16.1076253 L139.13722,19.2640565 L126.606786,19.2640565 C126.731811,16.374899 126.796145,13.1179445 126.796145,9.49319309 C126.796145,6.01153951 126.731811,3.04196337 126.606786,0.583282051 L138.563075,0.583282051 L138.400421,3.72433909 C135.456868,3.57296285 132.786428,3.49490947 130.390314,3.49490947 C130.487421,4.82536473 130.537189,6.39471062 130.537189,8.20294715 C132.587358,8.20294715 134.783189,8.14972894 137.119824,8.04329252 L137.119824,11.0424343 C134.822031,10.9478242 132.628629,10.8993365 130.537189,10.8993365 C130.537189,12.8412098 130.574818,14.6589074 130.653717,16.3512465 C133.344792,16.3512465 136.211874,16.2708278 139.256176,16.1076253" id="Fill-62"></path>
                        <path d="M152.420233,11.1576222 C150.741497,6.22252015 149.902736,3.55333124 149.902736,3.15242072 L149.667252,3.15242072 C149.667252,3.52494819 148.796931,6.19295447 147.061145,11.1576222 L152.420233,11.1576222 Z M159.225,19.2645296 L154.511673,19.2645296 C154.511673,18.6330068 154.066195,16.8436923 153.172811,13.8977687 L146.368044,13.8977687 C145.444314,16.7975699 144.98427,18.5845191 144.98427,19.2645296 L140.55134,19.2645296 C140.55134,18.8908195 141.695987,15.8313637 143.990138,10.0814317 C146.283075,4.33386499 147.428937,1.16679016 147.428937,0.583755102 L152.996805,0.583755102 C152.996805,1.12776347 154.033421,4.24871586 156.109082,9.94542962 C158.185956,15.6421434 159.225,18.7477216 159.225,19.2645296 L159.225,19.2645296 Z" id="Fill-63"></path>
                        <path d="M171.505384,6.06392988 C171.505384,4.1610832 170.249063,3.20906855 167.736421,3.20906855 C166.812692,3.20906855 165.998208,3.27647828 165.291755,3.41011512 C165.398572,4.89312925 165.453195,6.82435897 165.453195,9.20616954 C165.993352,9.2262742 166.448541,9.23455259 166.823616,9.23455259 C169.945604,9.23455259 171.505384,8.17846677 171.505384,6.06392988 M177.02834,19.2644113 L172.668239,19.2644113 C171.52966,15.8785505 170.654484,13.7888488 170.047566,12.9941235 C169.439434,12.2005808 168.456226,11.8032182 167.101585,11.8032182 C166.533509,11.8032182 165.988497,11.8079487 165.468975,11.8185924 C165.468975,14.2760911 165.512673,16.7584249 165.601283,19.2644113 L161.505799,19.2644113 C161.633252,16.3752538 161.697585,13.1182993 161.697585,9.49236525 C161.697585,6.0118943 161.633252,3.04113553 161.505799,0.583636839 L164.053642,0.583636839 C164.34739,0.583636839 164.964019,0.569445317 165.901101,0.539879644 C166.84061,0.511496599 167.707289,0.498487703 168.502352,0.498487703 C173.008113,0.498487703 175.260994,1.99924123 175.260994,5.00193093 C175.260994,7.3837415 173.974327,9.04414966 171.402208,9.98197279 L171.402208,10.1960283 C172.393912,10.4644846 173.263019,11.2166353 174.009528,12.4560283 C174.756038,13.6954212 175.761094,15.9648823 177.02834,19.2644113" id="Fill-64"></path>
                        <path d="M192.888327,0.583755102 L192.785151,3.66922868 C190.822377,3.52494819 188.970063,3.45280795 187.233063,3.45280795 C187.214855,5.26104448 187.203931,7.27505808 187.203931,9.49248352 C187.203931,12.936293 187.258553,16.1932475 187.366585,19.2645296 L183.241969,19.2645296 C183.370635,16.2228132 183.433755,12.9658587 183.433755,9.49248352 C183.433755,7.31290215 183.415547,5.29888854 183.375491,3.45280795 C181.990503,3.45280795 180.090849,3.5296787 177.676528,3.68223757 L177.79427,0.583755102 L192.888327,0.583755102 Z" id="Fill-65"></path>
                    </g>
                    <g id="Group-Copy">
                        <g id="Page-1">
                            <path d="M23.4943271,9.64746079 C23.1645154,9.21935713 21.864004,7.98833559 20.270091,7.9489944 C19.2043009,7.9232438 18.2258242,8.42609572 17.3615268,9.44825132 C17.3555173,9.45611956 16.6997824,10.2611833 15.3108971,12.0322521 L15.4749192,12.2404028 C16.8623906,10.4707646 17.5439306,9.63315491 17.5478191,9.62850549 C18.3590922,8.6685805 19.2725256,8.19505565 20.2647886,8.21901801 C21.7657321,8.25621331 22.9916559,9.41677837 23.3027323,9.82056202 C24.0337618,10.7694 24.3377683,12.9764406 22.7883958,16.0740227 C20.830382,19.9888286 15.0793573,25.1135549 11.1435339,27.2648026 L11.136464,27.2687367 C9.66662809,28.1946852 8.07589655,28.6989677 6.53677542,28.7268642 C5.10653102,28.7515418 3.77385149,28.3760123 2.68367015,27.6374709 C1.00315065,26.49908 0.121531889,24.6504018 0.264697727,22.5656765 L0.265051223,22.5553047 C0.259748785,20.0199439 4.46493597,11.8956309 4.50700198,11.8140873 C4.51760686,11.7940591 5.56678268,9.78157848 6.96733342,7.46474013 C8.81788444,4.40471098 10.4386631,2.20768443 11.654689,1.11006528 C12.4482873,0.374385054 13.1383113,0.120455566 13.7063792,0.355429754 C14.7481316,0.786752237 15.1390981,2.73056459 15.232421,3.29922358 L15.486231,3.29922358 C15.4038665,2.75667283 15.0037091,0.603994535 13.7954602,0.103288502 C13.1358368,-0.169953934 12.3609738,0.0997120301 11.4938484,0.903345214 C10.2421194,2.03279497 8.6489134,4.19048032 6.75877084,7.31667421 C5.35291766,9.64102314 4.30020688,11.661372 4.289602,11.6814002 C4.11497503,12.0175886 0.0154831203,19.9394733 0.0154831203,22.5510129 C-0.132985156,24.7369524 0.791053117,26.6739695 2.55146268,27.8663651 C3.64659297,28.6081253 4.97432356,28.9983184 6.39926551,28.9983184 C6.44628047,28.9983184 6.49364892,28.9979607 6.54101737,28.9968878 C8.12149752,28.968276 9.75323458,28.4521912 11.2587736,27.5044262 C13.5412966,26.2562376 16.0613689,24.3292346 18.3552037,22.0771304 C20.4952679,19.9766686 22.1913412,17.8350774 23.0079167,16.2027757 C24.6166765,12.9860971 24.275553,10.6610329 23.4943271,9.64746079" id="Fill-1" fill="#2F4368"></path>
                            <path d="M23.6244489,11.0705746 C23.3204424,9.9139437 22.4787687,9.08169874 21.121698,8.59672918 L21.1103861,8.59279506 C21.0188307,8.56311035 18.8586172,7.89538309 17.2799046,10.287685 L15.6375626,12.4124668 L16.2689063,13.093427 L17.9607377,10.8803063 L17.9823009,10.850264 C19.1725216,9.03305872 20.7487598,9.46545415 20.8555156,9.49764239 C21.9308501,9.88390133 22.5618402,10.4829603 22.7841892,11.3291535 C23.1988398,12.9074505 22.1478965,15.4771454 19.9014301,18.3790945 C17.5991114,21.352573 13.3401928,24.4276234 13.2977733,24.458381 L13.2786845,24.4726869 C13.2486374,24.4970069 10.2456897,26.8932429 7.63406203,27.4508149 C4.73433519,28.0695445 2.66744469,26.0667203 2.44120731,25.8363956 C2.08382296,25.4723107 0.953696579,24.1150397 1.42349263,21.9426909 C1.83743632,20.0282056 3.68551287,15.8587549 4.75554495,13.6760342 C5.84961475,11.3842312 8.13991466,7.63322771 8.16324539,7.59567476 L8.16748734,7.58852182 C8.18480864,7.55919475 9.91693853,4.62684563 12.1895636,2.07896722 C12.6671366,1.54321176 13.0761314,1.30251522 13.3401928,1.40051054 C13.7668623,1.55894823 14.0659199,2.55356501 14.1663127,3.29925935 L15.0479315,3.29925935 C14.9970281,2.85470392 14.7142313,0.912322158 13.624757,0.506392623 C13.0036647,0.275352554 12.3093988,0.582929117 11.5610479,1.42196937 C9.24812429,4.01562662 7.53260871,6.90720397 7.43292287,7.07672872 C7.31167377,7.27558055 5.08818458,10.9192899 3.98138893,13.2372012 C3.19874902,14.8344534 1.06009884,19.4731372 0.572981499,21.7273873 C-0.00321681266,24.3918587 1.39910141,26.073158 1.84273876,26.525224 C2.06791564,26.7544758 3.88205659,28.5144575 6.53044784,28.5140999 C6.93590763,28.5140999 7.3611632,28.4726128 7.80303307,28.3785516 C10.5606546,27.7898644 13.5632487,25.4208095 13.7901931,25.2394824 C14.0740503,25.0349083 18.2191432,22.0238768 20.5705979,18.986737 C22.0022562,17.1377012 24.302454,13.6506413 23.6244489,11.0705746" id="Fill-2" fill="#2F4368"></path>
                            <path d="M7.45494566,9.64746079 C7.78475733,9.21935713 9.08526873,7.98833559 10.6788282,7.9489944 C11.7449719,7.9232438 12.7234485,8.42609572 13.587746,9.44825132 C13.5937554,9.45611956 14.2491368,10.2611833 15.6383757,12.0322521 L15.4743536,12.2404028 C14.0868822,10.4707646 13.4053421,9.63315491 13.4014536,9.62850549 C12.5898271,8.6685805 11.6767472,8.19505565 10.6844842,8.21901801 C9.18354059,8.25621331 7.95761682,9.41677837 7.64654044,9.82056202 C6.91515743,10.7694 6.61115095,12.9764406 8.16087696,16.0740227 C10.1188907,19.9888286 15.8699155,25.1135549 19.8060923,27.2648026 L19.8124552,27.2687367 C21.2822911,28.1946852 22.8733762,28.6989677 24.4124973,28.7268642 C25.8427417,28.7515418 27.1754212,28.3760123 28.2656026,27.6374709 C29.9457686,26.49908 30.8277408,24.6504018 30.684575,22.5656765 L30.6842215,22.5553047 C30.6891704,20.0199439 26.4843368,11.8956309 26.4419173,11.8140873 C26.4316659,11.7940591 25.38249,9.78157848 23.9819393,7.46474013 C22.1313883,4.40471098 20.5106096,2.20768443 19.2945837,1.11006528 C18.5006319,0.374385054 17.8106079,0.120455566 17.2428935,0.355429754 C16.2011411,0.786752237 15.8101747,2.73056459 15.7168518,3.29922358 L15.4630417,3.29922358 C15.5454062,2.75667283 15.9455636,0.603994535 17.1534591,0.103288502 C17.8134359,-0.169953934 18.5879454,0.0997120301 19.4554244,0.903345214 C20.7071533,2.03279497 22.3000058,4.19048032 24.1905019,7.31667421 C25.5960016,9.64102314 26.6490658,11.661372 26.6593172,11.6814002 C26.8339442,12.0175886 30.9334361,19.9394733 30.9334361,22.5510129 C31.0819044,24.7369524 30.1582196,26.6739695 28.39781,27.8663651 C27.3026798,28.6081253 25.9749492,28.9983184 24.5500072,28.9983184 C24.5029923,28.9983184 24.4556238,28.9979607 24.4082554,28.9968878 C22.8277752,28.968276 21.1960381,28.4521912 19.6904991,27.5044262 C17.4079761,26.2562376 14.8879039,24.3292346 12.594069,22.0771304 C10.4540048,19.9766686 8.75793153,17.8350774 7.94135601,16.2027757 C6.33259619,12.9860971 6.67371973,10.6610329 7.45494566,9.64746079" id="Fill-3" fill="#A44540"></path>
                            <path d="M7.32478847,11.0703958 C7.62879494,9.91412252 8.47046867,9.08187756 9.82753942,8.596908 L9.83885129,8.59261624 C9.93040672,8.56293152 12.0906201,7.89556191 13.6689793,10.2875062 L15.3113213,12.4126456 L14.7036618,13.0936058 L12.9884997,10.8804852 L12.9669365,10.8504428 C11.7763623,9.03323755 10.2004776,9.46563297 10.0933683,9.49746357 C9.01803381,9.88372251 8.38739714,10.4827815 8.16504822,11.3289747 C7.75039753,12.9072717 8.80098733,15.4769666 11.0478073,18.3792733 C13.3497725,21.3523942 17.6086911,24.4274445 17.6514641,24.4582022 L17.6705529,24.4728657 C17.7006,24.4968281 20.7035477,26.8930641 23.3151753,27.450636 C26.2149022,28.0697233 28.2817927,26.0668992 28.5080301,25.8365744 C28.8654144,25.4721319 29.9951873,24.1148609 29.5257448,21.9428697 C29.1118011,20.0280267 27.263371,15.8585761 26.1936924,13.6762131 C25.0996226,11.38441 22.8089692,7.63304889 22.785992,7.59549594 L22.78175,7.58834299 C22.7644287,7.55901593 21.0319454,4.62702445 18.7596737,2.07878839 C18.2821008,1.54303294 17.873106,1.30269404 17.6090446,1.40068936 C17.182375,1.55912706 16.8833175,2.55338618 16.7829247,3.29943817 L15.9013059,3.29943817 C15.9522093,2.85488274 16.235006,0.912500981 17.3241269,0.506571447 C17.9455727,0.27517373 18.6398386,0.583107941 19.3878359,1.42179055 C21.7011131,4.0154478 23.4166287,6.90738279 23.5163145,7.07690755 C23.6375636,7.27540172 25.8606993,10.9191111 26.9678484,13.2370223 C27.7501349,14.8346322 29.8891385,19.4729583 30.3762559,21.7275661 C30.9521007,24.3916798 29.550136,26.0733368 29.1064986,26.5250452 C28.8813217,26.754297 27.0671808,28.5142787 24.4187895,28.5142787 C24.0133297,28.5142787 23.5880742,28.4727916 23.1462043,28.3783728 C20.3885828,27.7896856 17.3859887,25.4209884 17.1590443,25.2396613 C16.8751871,25.0347294 12.7300942,22.0236979 10.3786395,18.9865582 C8.94698114,17.13788 6.64678334,13.6508201 7.32478847,11.0703958" id="Fill-4" fill="#A44540"></path>
                        </g>
                    </g>
                </g>
            </g>
        </g>
    </g>
</svg>